<?xml version="1.0" encoding="UTF-8" standalone="no"?>
<svg
   viewBox="0 0 2362 2244"
   height="189.992mm"
   width="199.983mm"
   version="1.2"
   id="svg53"
   xmlns="http://www.w3.org/2000/svg"
   xmlns:svg="http://www.w3.org/2000/svg"
   xmlns:rdf="http://www.w3.org/1999/02/22-rdf-syntax-ns#"
   xmlns:cc="http://creativecommons.org/ns#"
   xmlns:dc="http://purl.org/dc/elements/1.1/">
  <defs
     id="defs1" />
  <g
     fill="none"
     stroke-width="1"
     stroke-linecap="square"
     stroke-linejoin="bevel"
     stroke="black"
     fill-rule="evenodd"
     id="g53">
    <g
       stroke-opacity="1"
       font-family="MS Shell Dlg 2"
       font-style="normal"
       fill="none"
       stroke-width="1"
       stroke-linecap="square"
       font-weight="400"
       stroke-linejoin="bevel"
       stroke="#000000"
       transform="matrix(1,0,0,1,0,0)"
       font-size="34.375"
       id="g1" />
    <g
       stroke-opacity="1"
       font-family="MS Shell Dlg 2"
       font-style="normal"
       fill="none"
       stroke-width="1"
       stroke-linecap="square"
       font-weight="400"
       stroke-linejoin="bevel"
       stroke="#000000"
       transform="matrix(1,0,0,1,0,0)"
       font-size="34.375"
       id="g2" />
    <g
       stroke-opacity="1"
       font-family="MS Shell Dlg 2"
       font-style="normal"
       fill="none"
       stroke-width="1"
       stroke-linecap="square"
       font-weight="400"
       stroke-linejoin="bevel"
       stroke="#000000"
       transform="matrix(11.81,0,0,11.81,0,0)"
       font-size="34.375"
       id="g3" />
    <g
       stroke-opacity="1"
       font-family="MS Shell Dlg 2"
       font-style="normal"
       fill="none"
       stroke-width="1"
       stroke-linecap="square"
       font-weight="400"
       stroke-linejoin="bevel"
       stroke="#000000"
       transform="matrix(0.999913,0,0,0.999913,0,0)"
       font-size="34.375"
       id="g4" />
    <g
       fill-opacity="1"
       font-family="MS Shell Dlg 2"
       font-style="normal"
       fill="#ffffff"
       font-weight="400"
       stroke="none"
       transform="matrix(0.999913,0,0,0.999913,0,0)"
       font-size="34.375"
       id="g5">
      <path
         d="M-2,-2 L2365,-2 L2365,2247 L-2,2247 L-2,-2"
         vector-effect="none"
         fill-rule="evenodd"
         id="path4" />
    </g>
    <g
       stroke-opacity="1"
       font-family="MS Shell Dlg 2"
       font-style="normal"
       fill="none"
       stroke-width="1"
       stroke-linecap="square"
       font-weight="400"
       stroke-linejoin="bevel"
       stroke="#000000"
       transform="matrix(0.999913,0,0,0.999913,0,0)"
       font-size="34.375"
       id="g6" />
    <g
       stroke-opacity="1"
       font-family="MS Shell Dlg 2"
       font-style="normal"
       fill="none"
       stroke-width="1"
       stroke-linecap="square"
       font-weight="400"
       stroke-linejoin="bevel"
       stroke="#000000"
       transform="matrix(11.81,0,0,11.81,0,0)"
       font-size="34.375"
       id="g7" />
    <g
       stroke-opacity="1"
       font-family="MS Shell Dlg 2"
       font-style="normal"
       fill="none"
       stroke-width="1"
       stroke-linecap="square"
       font-weight="400"
       stroke-linejoin="bevel"
       stroke="#000000"
       transform="matrix(11.81,0,0,11.81,0,0)"
       font-size="34.375"
       id="g8" />
    <g
       stroke-opacity="1"
       font-family="MS Shell Dlg 2"
       font-style="normal"
       fill="none"
       stroke-width="1"
       stroke-linecap="square"
       font-weight="400"
       stroke-linejoin="bevel"
       stroke="#000000"
       transform="matrix(11.81,0,0,11.81,71.4505,47.6337)"
       font-size="34.375"
       id="g9" />
    <g
       fill-opacity="1"
       font-family="MS Shell Dlg 2"
       font-style="normal"
       fill="#ffffff"
       font-weight="400"
       stroke="none"
       transform="matrix(11.81,0,0,11.81,71.4505,47.6337)"
       font-size="34.375"
       id="g10">
      <path
         d="M0,0 L188.558,0 L188.558,182.004 L0,182.004 L0,0"
         vector-effect="none"
         fill-rule="evenodd"
         id="path9" />
    </g>
    <g
       stroke-opacity="1"
       font-family="MS Shell Dlg 2"
       font-style="normal"
       fill="none"
       stroke-width="1"
       stroke-linecap="square"
       font-weight="400"
       stroke-linejoin="bevel"
       stroke="#000000"
       transform="matrix(11.81,0,0,11.81,71.4505,47.6337)"
       font-size="34.375"
       id="g11" />
    <g
       stroke-opacity="1"
       font-family="MS Shell Dlg 2"
       font-style="normal"
       fill="none"
       stroke-width="1"
       stroke-linecap="square"
       font-weight="400"
       stroke-linejoin="bevel"
       stroke="#000000"
       transform="matrix(11.81,0,0,11.81,71.4505,47.6337)"
       font-size="34.375"
       id="g12" />
    <g
       fill-opacity="0"
       font-family="MS Shell Dlg 2"
       font-style="normal"
       fill="#000000"
       font-weight="400"
       stroke="none"
       transform="matrix(0.999913,0,0,0.999913,71.4505,47.6337)"
       font-size="34.375"
       id="g13">
      <rect
         x="0"
         height="2150"
         y="0"
         width="2227"
         id="rect12" />
    </g>
    <g
       stroke-opacity="1"
       font-family="MS Shell Dlg 2"
       font-style="normal"
       fill="none"
       stroke-width="1"
       stroke-linecap="square"
       font-weight="400"
       stroke-linejoin="bevel"
       stroke="#000000"
       transform="matrix(0.999913,0,0,0.999913,71.4505,47.6337)"
       font-size="34.375"
       id="g14" />
    <g
       stroke-opacity="1"
       fill-opacity="1"
       font-family="MS Shell Dlg 2"
       font-style="normal"
       fill="#ff9e17"
       stroke-width="3.07087"
       stroke-linecap="square"
       font-weight="400"
       stroke-linejoin="bevel"
       stroke="#232323"
       transform="matrix(0.999913,0,0,0.999913,71.4505,47.6337)"
       font-size="34.375"
       id="g19">
      <path
         d="M473.118,1964.71 L369.342,1965.89 L367.577,1965.89 L356.591,1965.89 L355.806,1965.89 L298.328,1965.89 L271.648,1965.89 L267.529,1742.45 L262.624,1725.18 L262.624,1713.22 L264.978,1523.32 L264.978,1515.67 L265.175,1404.25 L282.438,1313.61 L286.754,1215.14 L268.706,1198.26 L270.079,1084.29 L270.079,1084.09 L272.041,918.915 L272.433,878.895 L275.768,597.191 L276.553,535.005 L278.514,371.789 L298.524,371.985 L329.323,372.181 L603.573,373.554 L664.779,373.947 L710.095,374.143 L724.219,374.143 L753.253,396.31 L744.032,415.535 L721.08,422.794 L705.386,418.674 L686.75,433.779 L682.238,437.507 L676.941,446.923 L662.425,446.923 L654.97,451.043 L653.989,462.617 L644.573,460.459 L643.592,452.22 L639.276,444.765 L632.018,446.923 L622.601,454.181 L615.343,462.617 L620.444,472.033 L627.898,476.349 L625.74,488.904 L618.482,496.162 L612.204,503.421 L601.611,501.459 L595.333,499.301 L588.075,505.579 L571.204,511.856 L558.649,509.698 L546.094,514.014 L538.836,514.014 L533.539,512.837 L523.142,518.134 L510.587,515.976 L493.716,500.282 L483.319,499.301 L476.06,512.837 L478.022,529.708 L469.783,539.124 L460.367,552.66 L454.089,565.215 L454.089,582.086 L456.051,589.344 L457.228,608.177 L452.912,630.148 L460.367,641.723 L480.18,639.565 L483.319,648.981 L477.041,657.416 L470.764,666.833 L477.041,686.646 L476.06,709.795 L471.745,721.173 L462.328,721.173 L461.347,732.747 L461.347,741.182 L455.07,747.46 L452.912,760.015 L447.812,770.412 L446.634,781.986 L447.812,795.522 L446.634,801.8 L440.357,808.077 L434.079,811.216 L432.118,820.632 L446.634,850.058 L450.95,863.594 L452.912,879.288 L458.209,891.843 L460.367,911.852 L462.328,918.13 L473.902,922.25 L483.319,934.805 L484.3,950.499 L491.754,954.814 L495.874,964.231 L495.874,972.47 L495.874,973.647 L499.993,979.924 L502.151,990.322 L495.874,998.757 L492.735,1011.31 L493.716,1019.75 L493.716,1029.16 L494.893,1039.56 L483.319,1044.86 L476.06,1055.25 L466.644,1069.97 L464.486,1081.15 L463.702,1090.96 L472.333,1100.96 L479.003,1104.69 L468.606,1112.93 L459.19,1121.17 L455.07,1131.76 L448.792,1138.04 L443.496,1152.56 L446.634,1169.43 L447.812,1180.81 L443.496,1193.36 L443.496,1206.11 L437.218,1208.07 L420.543,1200.82 L409.95,1206.11 L402.692,1224.94 L390.725,1227.89 L390.137,1228.08 L380.72,1232.2 L375.424,1242.6 L367.184,1248.88 L347.763,1257.31 L343.644,1269.87 L339.328,1290.86 L332.07,1308.71 L320.495,1318.13 L305.782,1319.11 L296.366,1325.38 L293.227,1338.92 L303.821,1354.61 L329.912,1356.77 L341.486,1370.31 L329.912,1385.02 L319.514,1386.2 L308.921,1381.88 L301.663,1389.34 L300.682,1399.73 L288.127,1403.85 L291.266,1413.27 L306.959,1410.13 L321.476,1418.57 L334.227,1424.84 L334.031,1425.04 L332.07,1435.24 L322.653,1439.56 L321.476,1452.11 L321.476,1460.35 L308.921,1467.81 L299.505,1479.38 L304.802,1492.92 L318.337,1504.49 L324.615,1506.45 L337.366,1498.21 L348.744,1495.07 L355.022,1503.31 L350.902,1514.89 L346.783,1520.18 L338.347,1525.28 L325.792,1534.7 L316.376,1536.86 L308.921,1537.84 L301.663,1543.14 L307.94,1559.81 L317.357,1574.52 L307.94,1583.94 L310.098,1595.51 L325.792,1595.51 L331.089,1610.23 L323.634,1616.51 L310.098,1617.49 L307.94,1625.92 L317.357,1635.34 L329.912,1636.32 L334.227,1644.75 L333.05,1654.17 L327.95,1658.29 L327.95,1665.74 L336.189,1668.88 L345.605,1672.02 L351.883,1677.12 L360.318,1682.42 L370.323,1686.54 L373.462,1699.09 L368.165,1713.81 L366.007,1721.07 L372.285,1723.22 L390.137,1722.24 L401.711,1726.36 L404.85,1731.66 L412.108,1732.64 L426.821,1727.34 L438.395,1719.1 L450.754,1726.75 L459.778,1732.44 L506.467,1758.34 L537.07,1799.93 L575.716,1818.96 L596.707,1828.37 L609.066,1832.88 L625.152,1838.57 L650.458,1843.87 L663.013,1883.5 L666.348,1893.5 L655.559,1928.62 L658.893,1950.2 L661.051,1962.36 L661.836,1968.24 L659.874,1977.27 L656.539,1993.16 L649.869,1992.76 L591.41,1968.83 L578.07,1963.34 L539.424,1963.93 L473.118,1964.71"
         vector-effect="none"
         fill-rule="evenodd"
         id="path14" />
      <path
         d="M1183.26,700.771 L1169.34,705.283 L1122.06,720.78 L1122.06,716.072 L1121.86,713.129 L1121.47,709.402 L1121.47,707.637 L1121.67,703.517 L1123.43,697.239 L1125.2,693.512 L1127.16,690.57 L1130.89,683.9 L1131.67,682.723 L1129.32,678.995 L1127.75,675.66 L1129.9,672.522 L1153.25,639.957 L1184.24,596.407 L1214.85,553.445 L1313.72,414.751 L1343.14,373.358 L1345.11,370.219 L1385.91,299.793 L1393.95,293.516 L1398.66,295.674 L1401.6,291.358 L1436.91,241.726 L1458.69,242.903 L1545.2,227.994 L1623.48,214.654 L1668.99,210.535 L1692.92,205.434 L1714.3,182.874 L1716.46,180.716 L1757.66,141.874 L1898.9,105.19 L1963.44,100.089 L2003.66,114.41 L2009.94,148.74 L2025.63,179.147 L2053.68,216.42 L2108.41,253.3 L2114.69,255.851 L2003.85,306.071 L1949.91,425.54 L1877.72,585.225 L1849.07,648.589 L1850.05,703.909 L1769.43,696.847 L1684.68,681.938 L1683.11,688.215 L1684.09,700.967 L1684.48,706.263 L1635.25,682.134 L1619.16,674.287 L1607.98,671.541 L1551.09,670.56 L1507.54,669.187 L1438.68,661.144 L1429.85,659.378 L1406.7,643.096 L1383.75,627.01 L1368.06,619.947 L1329.61,624.459 L1329.02,624.459 L1289,630.933 L1260.95,632.895 L1248.2,635.837 L1238.98,641.33 L1226.62,653.885 L1204.65,679.192 L1192.09,692.335 L1183.26,700.771"
         vector-effect="none"
         fill-rule="evenodd"
         id="path15" />
      <path
         d="M861.148,1063.1 L858.597,1063.3 L851.339,1064.67 L851.143,1065.46 L844.865,1072.71 L837.803,1073.3 L829.368,1078.6 L823.286,1076.64 L818.578,1080.95 L814.655,1077.81 L810.927,1079.38 L803.277,1074.68 L794.449,1067.03 L786.602,1060.94 L786.21,1057.41 L787.387,1052.31 L790.918,1048 L790.525,1043.68 L787.779,1039.95 L784.052,1037.99 L780.324,1039.76 L775.028,1047.41 L768.554,1048 L761.296,1051.53 L745.798,1049.17 L738.147,1050.55 L735.989,1047.41 L737.363,1045.45 L743.444,1034.85 L740.894,1031.71 L740.697,1031.71 L735.597,1031.32 L721.865,1020.53 L712.841,1019.36 L704.013,1021.71 L698.128,1025.63 L693.42,1036.81 L690.87,1038.19 L676.549,1031.52 L671.645,1035.44 L667.329,1035.25 L661.051,1028.38 L656.539,1036.03 L647.712,1046.23 L640.257,1041.92 L637.118,1045.84 L635.745,1055.25 L633.195,1058 L619.463,1058 L616.912,1063.3 L589.056,1072.71 L577.286,1084.68 L573.754,1089.19 L572.97,1090.17 L553.941,1088.41 L540.013,1091.55 L531.381,1090.96 L525.496,1092.14 L517.061,1102.73 L512.352,1102.73 L507.448,1106.65 L505.29,1114.7 L502.151,1122.93 L497.836,1124.11 L491.558,1123.52 L489.204,1119.01 L484.888,1104.69 L479.003,1104.69 L472.333,1100.96 L463.702,1090.96 L464.486,1081.15 L466.644,1069.97 L476.06,1055.25 L483.319,1044.86 L494.893,1039.56 L493.716,1029.16 L493.716,1019.75 L492.735,1011.31 L495.874,998.757 L502.151,990.322 L499.993,979.924 L495.874,973.647 L495.874,972.47 L495.874,964.231 L491.754,954.814 L484.3,950.499 L483.319,934.805 L473.902,922.25 L462.328,918.13 L460.367,911.852 L458.209,891.843 L452.912,879.288 L450.95,863.594 L446.634,850.058 L432.118,820.632 L434.079,811.216 L440.357,808.077 L446.634,801.8 L447.812,795.522 L446.634,781.986 L447.812,770.412 L452.912,760.015 L455.07,747.46 L461.347,741.182 L461.347,732.747 L462.328,721.173 L471.745,721.173 L476.06,709.795 L477.041,686.646 L470.764,666.833 L477.041,657.416 L483.319,648.981 L480.18,639.565 L460.367,641.723 L452.912,630.148 L457.228,608.177 L456.051,589.344 L454.089,582.086 L454.089,565.215 L460.367,552.66 L469.783,539.124 L478.022,529.708 L476.06,512.837 L483.319,499.301 L493.716,500.282 L510.587,515.976 L523.142,518.134 L533.539,512.837 L538.836,514.014 L546.094,514.014 L558.649,509.698 L571.204,511.856 L588.075,505.579 L595.333,499.301 L601.611,501.459 L612.204,503.421 L618.482,496.162 L625.74,488.904 L627.898,476.349 L620.444,472.033 L615.343,462.617 L622.601,454.181 L632.018,446.923 L639.276,444.765 L643.592,452.22 L644.573,460.459 L653.989,462.617 L654.97,451.043 L662.425,446.923 L676.941,446.923 L682.238,437.507 L686.75,433.779 L705.386,418.674 L721.08,422.794 L744.032,415.535 L753.253,396.31 L829.564,454.378 L874.88,488.708 L899.009,507.148 L941.971,539.909 L974.339,564.234 L995.918,580.713 L1023.19,601.507 L1031.03,607.392 L1045.94,618.966 L1125.39,679.192 L1126.96,676.837 L1127.75,675.66 L1129.32,678.995 L1131.67,682.723 L1130.89,683.9 L1127.16,690.57 L1125.2,693.512 L1123.43,697.239 L1121.67,703.517 L1121.47,707.637 L1121.47,709.402 L1121.86,713.129 L1122.06,716.072 L1122.06,720.78 L1122.06,722.546 L1121.67,726.469 L1121.27,728.431 L1119.31,732.747 L1116.37,731.177 L1114.6,729.804 L1114.21,729.608 L1114.21,729.608 L1114.01,729.804 L1105.78,744.321 L1124.02,778.063 L1119.9,795.522 L1116.76,799.445 L1106.95,811.412 L1102.44,816.905 L1099.5,818.278 L1084.98,806.9 L1081.84,804.546 L1078.7,802.78 L1072.43,813.57 L1068.31,818.474 L1059.87,825.733 L1053,831.814 L1047.9,836.13 L1049.47,838.68 L1046.33,841.819 L1043.98,839.661 L1030.25,851.235 L1022.21,848.685 L1021.42,849.47 L997.88,871.049 L1022.21,884.781 L1026.91,889.685 L1021.62,898.12 L1015.73,899.297 L1014.75,903.221 L1011.42,903.809 L1007.88,898.317 L996.703,900.278 L996.311,901.652 L998.665,903.025 L1000.63,909.891 L999.449,914.599 L994.741,916.757 L993.368,920.876 L993.172,947.752 L991.603,961.288 L983.363,960.7 L978.655,962.857 L977.478,966.192 L974.732,971.685 L974.339,977.767 L968.454,978.551 L962.177,981.494 L953.937,983.259 L950.014,985.417 L951.387,990.91 L951.387,997.776 L953.153,1002.48 L950.602,1004.05 L949.033,1001.31 L947.071,1001.5 L946.287,1004.84 L943.736,1005.43 L935.693,993.068 L927.454,986.791 L921.765,989.733 L917.449,992.087 L914.899,993.264 L912.153,994.834 L904.502,998.365 L903.129,998.953 L906.267,1000.91 L909.602,1003.07 L914.31,1018.96 L911.76,1023.67 L908.229,1025.24 L908.425,1029.56 L916.861,1033.28 L918.038,1043.68 L921.569,1046.23 L918.822,1049.76 L901.363,1072.13 L901.167,1065.06 L897.243,1063.49 L884.688,1062.91 L868.798,1063.1 L868.602,1063.1 L861.148,1063.1"
         vector-effect="none"
         fill-rule="evenodd"
         id="path16" />
      <path
         d="M656.539,1993.16 L659.874,1977.27 L661.836,1968.24 L661.051,1962.36 L658.893,1950.2 L655.559,1928.62 L666.348,1893.5 L663.013,1883.5 L650.458,1843.87 L661.836,1840.53 L669.683,1828.96 L667.721,1818.37 L663.798,1796.59 L726.377,1710.08 L773.458,1653.19 L808.377,1640.83 L858.794,1605.91 L924.119,1557.85 L940.009,1540.59 L940.794,1519.01 L942.363,1479.77 L911.368,1457.61 L889.593,1438.38 L890.966,1431.71 L891.947,1427.2 L895.87,1408.17 L902.148,1384.04 L924.119,1357.75 L946.09,1337.94 L963.942,1330.68 L996.899,1323.42 L997.488,1323.23 L1037.11,1308.71 L1047.71,1300.27 L1065.56,1277.13 L1067.33,1264.38 L1069.68,1248.88 L1061.24,1219.65 L1043.39,1199.83 L1015.14,1178.84 L1001.61,1174.53 L989.052,1163.15 L953.349,1127.45 L935.693,1103.32 L931.377,1096.25 L896.066,1086.05 L901.363,1072.13 L918.822,1049.76 L921.569,1046.23 L925.885,1049.37 L935.497,1047.21 L942.755,1044.07 L949.033,1048.98 L954.918,1048 L982.186,1065.65 L1011.61,1076.25 L1017.89,1080.36 L1031.23,1081.54 L1068.31,1084.88 L1100.48,1072.13 L1120.29,1062.71 L1143.24,1058.98 L1153.84,1060.94 L1163.65,1062.71 L1178.36,1071.54 L1189.93,1074.09 L1200.53,1073.7 L1229.36,1072.91 L1241.33,1104.1 L1267.42,1114.3 L1321.96,1126.27 L1335.89,1130 L1345.89,1083.7 L1350.79,1056.04 L1503.03,1080.95 L1497.73,1143.73 L1603.27,1157.66 L1639.56,1160.8 L1637.21,1174.72 L1633.48,1220.82 L1634.46,1281.44 L1633.48,1294.98 L1633.48,1303.41 L1635.25,1308.71 L1635.64,1309.69 L1636.62,1325.38 L1646.03,1348.34 L1656.43,1362.07 L1674.28,1372.47 L1669.77,1431.32 L1582.28,1439.75 L1456.73,1433.08 L1366.68,1528.62 L1351.97,1608.85 L1537.16,1619.64 L1537.16,1621.61 L1546.58,1626.9 L1566.39,1623.76 L1576.98,1622 L1590.52,1619.64 L1607.39,1621.61 L1627.2,1622.78 L1631.13,1625.14 L1563.25,1699.68 L1548.93,1713.22 L1514.4,1745.59 L1471.05,1807.38 L1440.25,1840.53 L1410.82,1906.84 L1308.81,1934.5 L1284.49,1939.8 L1224.85,1952.55 L1182.67,1956.67 L1096.16,1964.91 L987.287,1978.05 L955.899,1981.78 L968.258,1994.14 L970.808,2009.64 L937.851,2034.16 L858.009,2041.02 L863.502,2014.74 L850.947,1994.33 L830.348,1996.88 L764.631,2001 L705.583,1996.69 L665.956,1993.75 L656.539,1993.16"
         vector-effect="none"
         fill-rule="evenodd"
         id="path17" />
      <path
         d="M773.458,1653.19 L726.377,1710.08 L663.798,1796.59 L667.721,1818.37 L669.683,1828.96 L661.836,1840.53 L650.458,1843.87 L625.152,1838.57 L609.066,1832.88 L596.707,1828.37 L575.716,1818.96 L537.07,1799.93 L506.467,1758.34 L459.778,1732.44 L450.754,1726.75 L438.395,1719.1 L426.821,1727.34 L412.108,1732.64 L404.85,1731.66 L401.711,1726.36 L390.137,1722.24 L372.285,1723.22 L366.007,1721.07 L368.165,1713.81 L373.462,1699.09 L370.323,1686.54 L360.318,1682.42 L351.883,1677.12 L345.605,1672.02 L336.189,1668.88 L327.95,1665.74 L327.95,1658.29 L333.05,1654.17 L334.227,1644.75 L329.912,1636.32 L317.357,1635.34 L307.94,1625.92 L310.098,1617.49 L323.634,1616.51 L331.089,1610.23 L325.792,1595.51 L310.098,1595.51 L307.94,1583.94 L317.357,1574.52 L307.94,1559.81 L301.663,1543.14 L308.921,1537.84 L316.376,1536.86 L325.792,1534.7 L338.347,1525.28 L346.783,1520.18 L350.902,1514.89 L355.022,1503.31 L348.744,1495.07 L337.366,1498.21 L324.615,1506.45 L318.337,1504.49 L304.802,1492.92 L299.505,1479.38 L308.921,1467.81 L321.476,1460.35 L321.476,1452.11 L322.653,1439.56 L332.07,1435.24 L334.031,1425.04 L334.227,1424.84 L321.476,1418.57 L306.959,1410.13 L291.266,1413.27 L288.127,1403.85 L300.682,1399.73 L301.663,1389.34 L308.921,1381.88 L319.514,1386.2 L329.912,1385.02 L341.486,1370.31 L329.912,1356.77 L303.821,1354.61 L293.227,1338.92 L296.366,1325.38 L305.782,1319.11 L320.495,1318.13 L332.07,1308.71 L339.328,1290.86 L343.644,1269.87 L347.763,1257.31 L367.184,1248.88 L375.424,1242.6 L380.72,1232.2 L390.137,1228.08 L390.725,1227.89 L402.692,1224.94 L409.95,1206.11 L420.543,1200.82 L437.218,1208.07 L443.496,1206.11 L443.496,1193.36 L447.812,1180.81 L446.634,1169.43 L443.496,1152.56 L448.792,1138.04 L455.07,1131.76 L459.19,1121.17 L468.606,1112.93 L479.003,1104.69 L484.888,1104.69 L489.204,1119.01 L491.558,1123.52 L497.836,1124.11 L502.151,1122.93 L505.29,1114.7 L507.448,1106.65 L512.352,1102.73 L517.061,1102.73 L525.496,1092.14 L531.381,1090.96 L540.013,1091.55 L553.941,1088.41 L572.97,1090.17 L573.754,1089.19 L577.286,1084.68 L589.056,1072.71 L616.912,1063.3 L619.463,1058 L633.195,1058 L635.745,1055.25 L637.118,1045.84 L640.257,1041.92 L647.712,1046.23 L656.539,1036.03 L661.051,1028.38 L667.329,1035.25 L671.645,1035.44 L676.549,1031.52 L690.87,1038.19 L693.42,1036.81 L698.128,1025.63 L704.013,1021.71 L712.841,1019.36 L721.865,1020.53 L735.597,1031.32 L740.697,1031.71 L740.894,1031.71 L743.444,1034.85 L737.363,1045.45 L735.989,1047.41 L738.147,1050.55 L745.798,1049.17 L761.296,1051.53 L768.554,1048 L775.028,1047.41 L780.324,1039.76 L784.052,1037.99 L787.779,1039.95 L790.525,1043.68 L790.918,1048 L787.387,1052.31 L786.21,1057.41 L786.602,1060.94 L794.449,1067.03 L803.277,1074.68 L810.927,1079.38 L814.655,1077.81 L818.578,1080.95 L823.286,1076.64 L829.368,1078.6 L837.803,1073.3 L844.865,1072.71 L851.143,1065.46 L851.339,1064.67 L858.597,1063.3 L861.148,1063.1 L868.602,1063.1 L868.798,1063.1 L884.688,1062.91 L897.243,1063.49 L901.167,1065.06 L901.363,1072.13 L896.066,1086.05 L931.377,1096.25 L935.693,1103.32 L953.349,1127.45 L989.052,1163.15 L1001.61,1174.53 L1015.14,1178.84 L1043.39,1199.83 L1061.24,1219.65 L1069.68,1248.88 L1067.33,1264.38 L1065.56,1277.13 L1047.71,1300.27 L1037.11,1308.71 L997.488,1323.23 L996.899,1323.42 L963.942,1330.68 L946.09,1337.94 L924.119,1357.75 L902.148,1384.04 L895.87,1408.17 L891.947,1427.2 L890.966,1431.71 L889.593,1438.38 L911.368,1457.61 L942.363,1479.77 L940.794,1519.01 L940.009,1540.59 L924.119,1557.85 L858.794,1605.91 L808.377,1640.83 L773.458,1653.19"
         vector-effect="none"
         fill-rule="evenodd"
         id="path18" />
      <path
         d="M1858.69,1198.26 L1857.31,1208.86 L1854.96,1225.73 L1803.17,1323.03 L1779.24,1368.15 L1756.28,1411.11 L1678.99,1551.77 L1667.22,1580.02 L1661.73,1587.08 L1645.45,1607.87 L1634.46,1622.19 L1631.13,1625.14 L1627.2,1622.78 L1607.39,1621.61 L1590.52,1619.64 L1576.98,1622 L1566.39,1623.76 L1546.58,1626.9 L1537.16,1621.61 L1537.16,1619.64 L1351.97,1608.85 L1366.68,1528.62 L1456.73,1433.08 L1582.28,1439.75 L1669.77,1431.32 L1674.28,1372.47 L1656.43,1362.07 L1646.03,1348.34 L1636.62,1325.38 L1635.64,1309.69 L1635.25,1308.71 L1633.48,1303.41 L1633.48,1294.98 L1634.46,1281.44 L1633.48,1220.82 L1637.21,1174.72 L1639.56,1160.8 L1603.27,1157.66 L1497.73,1143.73 L1503.03,1080.95 L1350.79,1056.04 L1345.89,1083.7 L1335.89,1130 L1321.96,1126.27 L1267.42,1114.3 L1241.33,1104.1 L1229.36,1072.91 L1200.53,1073.7 L1189.93,1074.09 L1178.36,1071.54 L1163.65,1062.71 L1153.84,1060.94 L1143.24,1058.98 L1120.29,1062.71 L1100.48,1072.13 L1068.31,1084.88 L1031.23,1081.54 L1017.89,1080.36 L1011.61,1076.25 L982.186,1065.65 L954.918,1048 L949.033,1048.98 L942.755,1044.07 L935.497,1047.21 L925.885,1049.37 L921.569,1046.23 L918.038,1043.68 L916.861,1033.28 L908.425,1029.56 L908.229,1025.24 L911.76,1023.67 L914.31,1018.96 L909.602,1003.07 L906.267,1000.91 L903.129,998.953 L904.502,998.365 L912.153,994.834 L914.899,993.264 L917.449,992.087 L921.765,989.733 L927.454,986.791 L935.693,993.068 L943.736,1005.43 L946.287,1004.84 L947.071,1001.5 L949.033,1001.31 L950.602,1004.05 L953.153,1002.48 L951.387,997.776 L951.387,990.91 L950.014,985.417 L953.937,983.259 L962.177,981.494 L968.454,978.551 L974.339,977.767 L974.732,971.685 L977.478,966.192 L978.655,962.857 L983.363,960.7 L991.603,961.288 L993.172,947.752 L993.368,920.876 L994.741,916.757 L999.449,914.599 L1000.63,909.891 L998.665,903.025 L996.311,901.652 L996.703,900.278 L1007.88,898.317 L1011.42,903.809 L1014.75,903.221 L1015.73,899.297 L1021.62,898.12 L1026.91,889.685 L1022.21,884.781 L997.88,871.049 L1021.42,849.47 L1022.21,848.685 L1030.25,851.235 L1043.98,839.661 L1046.33,841.819 L1049.47,838.68 L1047.9,836.13 L1053,831.814 L1059.87,825.733 L1068.31,818.474 L1072.43,813.57 L1078.7,802.78 L1081.84,804.546 L1084.98,806.9 L1099.5,818.278 L1102.44,816.905 L1106.95,811.412 L1116.76,799.445 L1119.9,795.522 L1124.02,778.063 L1105.78,744.321 L1114.01,729.804 L1114.21,729.608 L1114.21,729.608 L1114.6,729.804 L1116.37,731.177 L1119.31,732.747 L1121.27,728.431 L1121.67,726.469 L1122.06,722.546 L1122.06,720.78 L1169.34,705.283 L1183.26,700.771 L1192.09,692.335 L1204.65,679.192 L1226.62,653.885 L1238.98,641.33 L1248.2,635.837 L1260.95,632.895 L1289,630.933 L1329.02,624.459 L1329.61,624.459 L1368.06,619.947 L1383.75,627.01 L1406.7,643.096 L1429.85,659.378 L1438.68,661.144 L1507.54,669.187 L1551.09,670.56 L1607.98,671.541 L1619.16,674.287 L1635.25,682.134 L1684.48,706.263 L1684.09,700.967 L1683.11,688.215 L1684.68,681.938 L1769.43,696.847 L1850.05,703.909 L1851.23,773.354 L1851.43,787.087 L1852.41,835.541 L1853,875.561 L1854.76,974.235 L1855.16,995.422 L1855.94,1040.54 L1856.14,1049.76 L1860.84,1183.55 L1858.69,1198.26"
         vector-effect="none"
         fill-rule="evenodd"
         id="path19" />
    </g>
    <g
       stroke-opacity="1"
       font-family="MS Shell Dlg 2"
       font-style="normal"
       fill="none"
       stroke-width="1"
       stroke-linecap="square"
       font-weight="400"
       stroke-linejoin="bevel"
       stroke="#000000"
       transform="matrix(0.999913,0,0,0.999913,71.4505,47.6337)"
       font-size="34.375"
       id="g20" />
    <g
       stroke-opacity="1"
       font-family="MS Shell Dlg 2"
       font-style="normal"
       fill="none"
       stroke-width="1"
       stroke-linecap="square"
       font-weight="400"
       stroke-linejoin="bevel"
       stroke="#000000"
       transform="matrix(0.999913,0,0,0.999913,71.4505,47.6337)"
       font-size="34.375"
       id="g21" />
    <g
       stroke-opacity="1"
       font-family="MS Shell Dlg 2"
       font-style="normal"
       fill="none"
       stroke-width="1"
       stroke-linecap="square"
       font-weight="400"
       stroke-linejoin="bevel"
       stroke="#000000"
       transform="matrix(0.319972,0,0,0.319972,1348.25,1075.61)"
       font-size="34.375"
       id="g22" />
    <g
       fill-opacity="1"
       font-family="'MS Shell Dlg 2'"
       font-style="normal"
       fill="#323232"
       font-weight="400"
       stroke="none"
       transform="matrix(0.999913,0,0,0.999913,1410.9977,963.56048)"
       font-size="34.375px"
       id="g23">
      <path
         d="m 3.11719,0 v -30.0645 h 5.98828 l 7.11623,21.28716 c 0.6562,1.98242 1.1347,3.46582 1.4355,4.45019 0.3418,-1.09375 0.875,-2.70019 1.5996,-4.81933 l 7.1983,-20.91802 h 5.3525 V 0 H 27.9727 V -25.1631 L 19.2363,0 H 15.6475 L 6.95215,-25.5938 V 0 H 3.11719 M 52.042,0 v -3.19922 c -1.6953,2.460939 -3.999,3.691408 -6.9111,3.691408 -1.2852,0 -2.4849,-0.246094 -3.5992,-0.738282 -1.1142,-0.492187 -1.9414,-1.110836 -2.4814,-1.855956 -0.54,-0.74512 -0.9194,-1.65772 -1.1382,-2.73779 -0.1504,-0.72461 -0.2256,-1.87305 -0.2256,-3.44532 V -21.7793 h 3.6914 v 12.0791 c 0,1.92774 0.0752,3.22657 0.2256,3.89649 0.2324,0.9707 0.7246,1.73291 1.4766,2.28662 0.7519,0.55371 1.6816,0.83057 2.789,0.83057 1.1075,0 2.1465,-0.28369 3.1172,-0.85108 0.9707,-0.56738 1.6577,-1.33984 2.0611,-2.31738 0.4033,-0.97754 0.6049,-2.396 0.6049,-4.25542 v -11.6689 h 3.6915 V 0 H 52.042 m 8.7266,0 v -21.7793 h 3.3222 v 3.0967 c 1.5996,-2.3926 3.9102,-3.5889 6.9317,-3.5889 1.3125,0 2.519,0.2359 3.6196,0.7075 1.1006,0.4717 1.9243,1.0904 2.4712,1.856 0.5469,0.7656 0.9297,1.6748 1.1484,2.7275 0.1367,0.6836 0.2051,1.8799 0.2051,3.5889 V 0 h -3.6914 v -13.248 c 0,-1.504 -0.1436,-2.6285 -0.4307,-3.3736 -0.2871,-0.7451 -0.7964,-1.3398 -1.5278,-1.7842 -0.7315,-0.4443 -1.5894,-0.6665 -2.5737,-0.6665 -1.5723,0 -2.9292,0.4991 -4.0708,1.4971 -1.1416,0.9981 -1.7124,2.8916 -1.7124,5.6807 V 0 h -3.6914 m 23.0205,-25.8193 v -4.2452 h 3.6914 v 4.2452 h -3.6914 m 0,25.8193 v -21.7793 h 3.6914 V 0 h -3.6914 m 23.1909,-7.97754 3.63,0.47168 c -0.396,2.50195 -1.411,4.46045 -3.045,5.87549 -1.634,1.415038 -3.64,2.122558 -6.019,2.122558 -2.9806,0 -5.3766,-0.974122 -7.1881,-2.922368 -1.8115,-1.94824 -2.7173,-4.74072 -2.7173,-8.37742 0,-2.3516 0.3897,-4.4092 1.169,-6.1729 0.7793,-1.7636 1.9653,-3.0864 3.5581,-3.9682 1.5927,-0.8819 3.3257,-1.3228 5.1983,-1.3228 2.366,0 4.3,0.5982 5.804,1.7944 1.504,1.1963 2.468,2.8951 2.892,5.0962 l -3.589,0.5538 c -0.342,-1.4629 -0.947,-2.5635 -1.815,-3.3018 -0.868,-0.7383 -1.918,-1.1074 -3.148,-1.1074 -1.8594,0 -3.3702,0.6665 -4.5323,1.9995 -1.1621,1.333 -1.7431,3.4419 -1.7431,6.3266 0,2.92582 0.5605,5.0518 1.6816,6.37797 1.1211,1.32618 2.584,1.98926 4.3888,1.98926 1.449,0 2.659,-0.44433 3.63,-1.33301 0.97,-0.88867 1.586,-2.25586 1.845,-4.10156 m 6.809,-17.84176 v -4.2452 h 3.691 v 4.2452 h -3.691 m 0,25.8193 v -21.7793 h 3.691 V 0 h -3.691 m 8.98,8.34668 V -21.7793 h 3.363 v 2.8301 c 0.793,-1.1074 1.688,-1.938 2.686,-2.4917 0.998,-0.5537 2.208,-0.8306 3.63,-0.8306 1.86,0 3.5,0.4785 4.922,1.4356 1.422,0.957 2.495,2.3071 3.22,4.0503 0.724,1.7431 1.087,3.6538 1.087,5.7319 0,2.2285 -0.4,4.23485 -1.2,6.01903 -0.8,1.78418 -1.962,3.15137 -3.486,4.101565 -1.525,0.9501948 -3.128,1.425293 -4.809,1.425293 -1.231,0 -2.335,-0.259766 -3.312,-0.779297 -0.978,-0.519532 -1.781,-1.175781 -2.41,-1.968751 V 8.34668 h -3.691 m 3.342,-19.11328 c 0,2.80273 0.568,4.87402 1.702,6.21387 1.135,1.33984 2.509,2.00976 4.123,2.00976 1.64,0 3.045,-0.69385 4.214,-2.08154 1.169,-1.3877 1.753,-3.5376 1.753,-6.44969 0,-2.7754 -0.57,-4.8535 -1.712,-6.2344 -1.142,-1.3809 -2.505,-2.0713 -4.091,-2.0713 -1.573,0 -2.964,0.7349 -4.174,2.2046 -1.21,1.4697 -1.815,3.606 -1.815,6.4087 m 33.869,8.08008 c -1.367,1.16211 -2.683,1.982418 -3.947,2.460934 -1.265,0.478516 -2.622,0.717774 -4.071,0.717774 -2.393,0 -4.232,-0.5844732 -5.517,-1.753418 -1.285,-1.16895 -1.927,-2.6626 -1.927,-4.48096 0,-1.0664 0.242,-2.04052 0.728,-2.92236 0.485,-0.88184 1.121,-1.58935 1.907,-2.12255 0.786,-0.5332 1.671,-0.9365 2.656,-1.21 0.724,-0.1914 1.818,-0.3759 3.281,-0.5537 2.98,-0.3555 5.175,-0.7793 6.583,-1.2715 0.014,-0.5058 0.02,-0.8271 0.02,-0.9638 0,-1.5039 -0.348,-2.5635 -1.046,-3.1787 -0.943,-0.834 -2.344,-1.251 -4.204,-1.251 -1.736,0 -3.018,0.3042 -3.845,0.9126 -0.827,0.6084 -1.439,1.685 -1.835,3.23 l -3.61,-0.4922 c 0.328,-1.545 0.868,-2.7925 1.62,-3.7427 0.752,-0.9502 1.839,-1.6816 3.261,-2.1943 1.422,-0.5127 3.07,-0.7691 4.943,-0.7691 1.859,0 3.37,0.2188 4.532,0.6563 1.162,0.4375 2.016,0.9878 2.563,1.6508 0.547,0.6631 0.93,1.5005 1.149,2.5123 0.123,0.6289 0.184,1.7636 0.184,3.4042 v 4.92192 c 0,3.43164 0.079,5.60205 0.236,6.51123 0.157,0.90918 0.468,1.780766 0.933,2.61475 h -3.855 c -0.383,-0.765625 -0.629,-1.66113 -0.739,-2.68652 m -0.307,-8.24418 c -1.34,0.5469 -3.35,1.01175 -6.029,1.39457 -1.518,0.21875 -2.591,0.46484 -3.22,0.73828 -0.629,0.27344 -1.114,0.67334 -1.456,1.19971 -0.342,0.52636 -0.513,1.11084 -0.513,1.75341 0,0.98438 0.373,1.80469 1.118,2.46094 0.745,0.65625 1.835,0.98438 3.271,0.98438 1.422,0 2.686,-0.31104 3.794,-0.93311 1.107,-0.62207 1.921,-1.47314 2.44,-2.55322 0.397,-0.83399 0.595,-2.06446 0.595,-3.69141 V -10.9307 M 168.687,0 v -30.0645 h 3.691 V 0 h -3.691 m 15.251,0 11.546,-30.0645 h 4.287 L 212.075,0 h -4.532 l -3.507,-9.10547 H 191.465 L 188.163,0 h -4.225 m 8.675,-12.3457 h 10.193 l -3.138,-8.3262 c -0.957,-2.5293 -1.668,-4.6074 -2.133,-6.2344 -0.383,1.9278 -0.923,3.8418 -1.62,5.7422 l -3.302,8.8184 M 214.728,0 v -21.7793 h 3.322 v 3.3018 c 0.847,-1.545 1.63,-2.5635 2.348,-3.0557 0.718,-0.4922 1.507,-0.7383 2.369,-0.7383 1.244,0 2.508,0.3965 3.794,1.1895 l -1.272,3.4248 c -0.902,-0.5332 -1.805,-0.7998 -2.707,-0.7998 -0.807,0 -1.531,0.2426 -2.174,0.728 -0.642,0.4853 -1.1,1.1587 -1.374,2.02 -0.41,1.3125 -0.615,2.7481 -0.615,4.3067 V 0 h -3.691 m 28.95,-7.01367 3.814,0.47168 c -0.601,2.22851 -1.716,3.95801 -3.343,5.18847 -1.627,1.230473 -3.705,1.845708 -6.234,1.845708 -3.186,0 -5.711,-0.980958 -7.578,-2.942868 -1.866,-1.96192 -2.799,-4.71338 -2.799,-8.25442 0,-3.664 0.943,-6.5078 2.83,-8.5312 1.887,-2.0235 4.334,-3.0352 7.342,-3.0352 2.912,0 5.291,0.9912 7.137,2.9736 1.845,1.9825 2.768,4.7715 2.768,8.3672 0,0.2188 -0.007,0.5469 -0.02,0.98441 h -16.242 c 0.136,2.39258 0.813,4.22461 2.03,5.49609 1.217,1.27149 2.734,1.90723 4.553,1.90723 1.353,0 2.508,-0.35547 3.465,-1.06641 0.957,-0.71093 1.716,-1.8457 2.277,-3.40429 m -12.12,-5.96773 h 12.161 c -0.164,-1.8321 -0.629,-3.2061 -1.395,-4.1221 -1.176,-1.4219 -2.7,-2.1328 -4.573,-2.1328 -1.695,0 -3.121,0.5674 -4.276,1.7021 -1.155,1.1348 -1.794,2.6524 -1.917,4.5528 m 34.422,10.29488 c -1.367,1.16211 -2.683,1.982418 -3.947,2.460934 -1.265,0.478516 -2.622,0.717774 -4.071,0.717774 -2.393,0 -4.232,-0.5844732 -5.517,-1.753418 -1.285,-1.16895 -1.927,-2.6626 -1.927,-4.48096 0,-1.0664 0.242,-2.04052 0.728,-2.92236 0.485,-0.88184 1.121,-1.58935 1.907,-2.12255 0.786,-0.5332 1.671,-0.9365 2.656,-1.21 0.724,-0.1914 1.818,-0.3759 3.281,-0.5537 2.98,-0.3555 5.175,-0.7793 6.583,-1.2715 0.014,-0.5058 0.02,-0.8271 0.02,-0.9638 0,-1.5039 -0.348,-2.5635 -1.046,-3.1787 -0.943,-0.834 -2.344,-1.251 -4.204,-1.251 -1.736,0 -3.018,0.3042 -3.845,0.9126 -0.827,0.6084 -1.439,1.685 -1.835,3.23 l -3.61,-0.4922 c 0.328,-1.545 0.868,-2.7925 1.62,-3.7427 0.752,-0.9502 1.839,-1.6816 3.261,-2.1943 1.422,-0.5127 3.07,-0.7691 4.943,-0.7691 1.859,0 3.37,0.2188 4.532,0.6563 1.162,0.4375 2.016,0.9878 2.563,1.6508 0.547,0.6631 0.93,1.5005 1.149,2.5123 0.123,0.6289 0.184,1.7636 0.184,3.4042 v 4.92192 c 0,3.43164 0.079,5.60205 0.236,6.51123 0.157,0.90918 0.468,1.780766 0.933,2.61475 h -3.855 c -0.383,-0.765625 -0.629,-1.66113 -0.739,-2.68652 m -0.307,-8.24418 c -1.34,0.5469 -3.35,1.01175 -6.029,1.39457 -1.518,0.21875 -2.591,0.46484 -3.22,0.73828 -0.629,0.27344 -1.114,0.67334 -1.456,1.19971 -0.342,0.52636 -0.513,1.11084 -0.513,1.75341 0,0.98438 0.373,1.80469 1.118,2.46094 0.745,0.65625 1.835,0.98438 3.271,0.98438 1.422,0 2.686,-0.31104 3.794,-0.93311 1.107,-0.62207 1.921,-1.47314 2.44,-2.55322 0.397,-0.83399 0.595,-2.06446 0.595,-3.69141 v -1.35355 m 43.018,0.3897 3.979,1.00487 c -0.834,3.26758 -2.335,5.75927 -4.502,7.47509 -2.167,1.715825 -4.815,2.573735 -7.946,2.573735 -3.241,0 -5.876,-0.659668 -7.906,-1.979005 -2.03,-1.31933 -3.575,-3.22998 -4.635,-5.73193 -1.059,-2.50196 -1.589,-5.18846 -1.589,-8.05956 0,-3.1309 0.598,-5.8618 1.794,-8.1929 1.197,-2.331 2.899,-4.1015 5.107,-5.3115 2.208,-1.21 4.638,-1.8149 7.29,-1.8149 3.008,0 5.537,0.7656 7.588,2.2968 2.051,1.5313 3.48,3.6846 4.286,6.46 l -3.917,0.9228 c -0.697,-2.1875 -1.709,-3.7802 -3.035,-4.7783 -1.326,-0.998 -2.994,-1.4971 -5.004,-1.4971 -2.31,0 -4.242,0.5538 -5.793,1.6612 -1.552,1.1074 -2.642,2.5942 -3.271,4.4604 -0.629,1.8662 -0.944,3.7906 -0.944,5.773 0,2.5566 0.373,4.7886 1.118,6.69578 0.745,1.90723 1.904,3.33252 3.476,4.27588 1.572,0.94336 3.275,1.41504 5.107,1.41504 2.228,0 4.115,-0.64258 5.66,-1.92774 1.545,-1.28515 2.591,-3.19238 3.137,-5.72166 m 6.704,-0.3486 c 0,-4.0333 1.121,-7.0206 3.363,-8.962 1.873,-1.6132 4.156,-2.4199 6.849,-2.4199 2.995,0 5.442,0.981 7.342,2.9429 1.901,1.9619 2.851,4.6723 2.851,8.1313 0,2.80277 -0.421,5.00736 -1.261,6.6138 -0.841,1.60645 -2.065,2.85401 -3.671,3.74268 -1.607,0.8886716 -3.36,1.333008 -5.261,1.333008 -3.048,0 -5.513,-0.97754 -7.393,-2.932618 -1.88,-1.95508 -2.819,-4.77148 -2.819,-8.44917 m 3.793,0 c 0,2.78901 0.609,4.87739 1.826,6.26509 1.216,1.38769 2.748,2.08154 4.593,2.08154 1.832,0 3.357,-0.69726 4.574,-2.0918 1.216,-1.39453 1.825,-3.5205 1.825,-6.37793 0,-2.6934 -0.612,-4.7339 -1.836,-6.1216 -1.223,-1.3877 -2.744,-2.0815 -4.563,-2.0815 -1.845,0 -3.377,0.6904 -4.593,2.0713 -1.217,1.3808 -1.826,3.4658 -1.826,6.2549 M 354.042,0 v -3.19922 c -1.695,2.460939 -3.999,3.691408 -6.911,3.691408 -1.285,0 -2.485,-0.246094 -3.599,-0.738282 -1.115,-0.492187 -1.942,-1.110836 -2.482,-1.855956 -0.54,-0.74512 -0.919,-1.65772 -1.138,-2.73779 -0.15,-0.72461 -0.225,-1.87305 -0.225,-3.44532 V -21.7793 h 3.691 v 12.0791 c 0,1.92774 0.075,3.22657 0.226,3.89649 0.232,0.9707 0.724,1.73291 1.476,2.28662 0.752,0.55371 1.682,0.83057 2.789,0.83057 1.108,0 2.147,-0.28369 3.117,-0.85108 0.971,-0.56738 1.658,-1.33984 2.061,-2.31738 0.404,-0.97754 0.605,-2.396 0.605,-4.25542 v -11.6689 h 3.692 V 0 h -3.302 m 8.727,0 v -21.7793 h 3.322 v 3.0967 c 1.599,-2.3926 3.91,-3.5889 6.931,-3.5889 1.313,0 2.52,0.2359 3.62,0.7075 1.101,0.4717 1.924,1.0904 2.471,1.856 0.547,0.7656 0.93,1.6748 1.149,2.7275 0.136,0.6836 0.205,1.8799 0.205,3.5889 V 0 h -3.692 v -13.248 c 0,-1.504 -0.143,-2.6285 -0.43,-3.3736 -0.287,-0.7451 -0.797,-1.3398 -1.528,-1.7842 -0.732,-0.4443 -1.589,-0.6665 -2.574,-0.6665 -1.572,0 -2.929,0.4991 -4.071,1.4971 -1.141,0.9981 -1.712,2.8916 -1.712,5.6807 V 0 h -3.691 m 37.211,-7.97754 3.63,0.47168 c -0.396,2.50195 -1.411,4.46045 -3.045,5.87549 -1.634,1.415038 -3.64,2.122558 -6.019,2.122558 -2.981,0 -5.377,-0.974122 -7.188,-2.922368 -1.812,-1.94824 -2.717,-4.74072 -2.717,-8.37742 0,-2.3516 0.389,-4.4092 1.169,-6.1729 0.779,-1.7636 1.965,-3.0864 3.558,-3.9682 1.592,-0.8819 3.325,-1.3228 5.198,-1.3228 2.366,0 4.3,0.5982 5.804,1.7944 1.504,1.1963 2.468,2.8951 2.892,5.0962 l -3.589,0.5538 c -0.342,-1.4629 -0.947,-2.5635 -1.815,-3.3018 -0.868,-0.7383 -1.918,-1.1074 -3.148,-1.1074 -1.859,0 -3.37,0.6665 -4.532,1.9995 -1.162,1.333 -1.743,3.4419 -1.743,6.3266 0,2.92582 0.56,5.0518 1.681,6.37797 1.121,1.32618 2.584,1.98926 4.389,1.98926 1.449,0 2.659,-0.44433 3.63,-1.33301 0.97,-0.88867 1.586,-2.25586 1.845,-4.10156 m 6.809,-17.84176 v -4.2452 h 3.691 v 4.2452 h -3.691 m 0,25.8193 v -21.7793 h 3.691 V 0 h -3.691 m 8.898,0 v -30.0645 h 3.691 V 0 h -3.691"
         vector-effect="none"
         fill-rule="nonzero"
         id="path22" />
    </g>
    <g
       stroke-opacity="1"
       font-family="MS Shell Dlg 2"
       font-style="normal"
       fill="none"
       stroke-width="1"
       stroke-linecap="square"
       font-weight="400"
       stroke-linejoin="bevel"
       stroke="#000000"
       transform="matrix(0.319972,0,0,0.319972,1348.25,1075.61)"
       font-size="34.375"
       id="g24" />
    <g
       stroke-opacity="1"
       font-family="MS Shell Dlg 2"
       font-style="normal"
       fill="none"
       stroke-width="1"
       stroke-linecap="square"
       font-weight="400"
       stroke-linejoin="bevel"
       stroke="#000000"
       transform="matrix(0.999913,0,0,0.999913,71.4505,47.6337)"
       font-size="34.375"
       id="g25" />
    <g
       stroke-opacity="1"
       font-family="MS Shell Dlg 2"
       font-style="normal"
       fill="none"
       stroke-width="1"
       stroke-linecap="square"
       font-weight="400"
       stroke-linejoin="bevel"
       stroke="#000000"
       transform="matrix(0.319972,0,0,0.319972,699.238,823.037)"
       font-size="34.375"
       id="g26" />
    <g
       fill-opacity="1"
       font-family="MS Shell Dlg 2"
       font-style="normal"
       fill="#323232"
       font-weight="400"
       stroke="none"
       transform="matrix(0.999913,0,0,0.999913,699.238,823.037)"
       font-size="34.375"
       id="g27">
      <path
         d="M17.3086,-11.792 L17.3086,-15.3193 L30.0439,-15.3398 L30.0439,-4.18359 C28.0889,-2.625 26.0723,-1.45264 23.9941,-0.666504 C21.916,0.119629 19.7832,0.512695 17.5957,0.512695 C14.6426,0.512695 11.9595,-0.119629 9.54639,-1.38428 C7.1333,-2.64893 5.31152,-4.47754 4.08105,-6.87012 C2.85059,-9.2627 2.23535,-11.9355 2.23535,-14.8887 C2.23535,-17.8145 2.84717,-20.5454 4.0708,-23.0815 C5.29443,-25.6177 7.05469,-27.501 9.35156,-28.7314 C11.6484,-29.9619 14.2939,-30.5771 17.2881,-30.5771 C19.4619,-30.5771 21.4272,-30.2251 23.1841,-29.521 C24.9409,-28.8169 26.3184,-27.8359 27.3164,-26.5781 C28.3145,-25.3203 29.0732,-23.6797 29.5928,-21.6563 L26.0039,-20.6719 C25.5527,-22.2031 24.9922,-23.4063 24.3223,-24.2813 C23.6523,-25.1563 22.6953,-25.8569 21.4512,-26.3833 C20.207,-26.9097 18.8262,-27.1729 17.3086,-27.1729 C15.4902,-27.1729 13.918,-26.896 12.5918,-26.3423 C11.2656,-25.7886 10.1958,-25.0605 9.38232,-24.1582 C8.56885,-23.2559 7.93652,-22.2646 7.48535,-21.1846 C6.71973,-19.3252 6.33691,-17.3086 6.33691,-15.1348 C6.33691,-12.4551 6.79834,-10.2129 7.72119,-8.4082 C8.64404,-6.60352 9.9873,-5.26367 11.751,-4.38867 C13.5146,-3.51367 15.3877,-3.07617 17.3701,-3.07617 C19.0928,-3.07617 20.7744,-3.40771 22.415,-4.0708 C24.0557,-4.73389 25.2998,-5.44141 26.1475,-6.19336 L26.1475,-11.792 L17.3086,-11.792 M39.7881,0 L33.123,-21.7793 L36.9375,-21.7793 L40.4033,-9.20801 L41.6953,-4.53223 C41.75,-4.76465 42.126,-6.26172 42.8232,-9.02344 L46.2891,-21.7793 L50.083,-21.7793 L53.3438,-9.14648 L54.4307,-4.9834 L55.6816,-9.1875 L59.4141,-21.7793 L63.0029,-21.7793 L56.1943,0 L52.3594,0 L48.8936,-13.043 L48.0527,-16.7549 L43.6436,0 L39.7881,0 M79.9805,-2.68652 C78.6133,-1.52441 77.2974,-0.704102 76.0327,-0.225586 C74.7681,0.25293 73.4111,0.492188 71.9619,0.492188 C69.5693,0.492188 67.7305,-0.0922852 66.4453,-1.26123 C65.1602,-2.43018 64.5176,-3.92383 64.5176,-5.74219 C64.5176,-6.80859 64.7603,-7.78271 65.2456,-8.66455 C65.731,-9.54639 66.3667,-10.2539 67.1528,-10.7871 C67.939,-11.3203 68.8242,-11.7236 69.8086,-11.9971 C70.5332,-12.1885 71.627,-12.373 73.0898,-12.5508 C76.0703,-12.9063 78.2646,-13.3301 79.6729,-13.8223 C79.6865,-14.3281 79.6934,-14.6494 79.6934,-14.7861 C79.6934,-16.29 79.3447,-17.3496 78.6475,-17.9648 C77.7041,-18.7988 76.3027,-19.2158 74.4434,-19.2158 C72.707,-19.2158 71.4253,-18.9116 70.5981,-18.3032 C69.771,-17.6948 69.1592,-16.6182 68.7627,-15.0732 L65.1533,-15.5654 C65.4814,-17.1104 66.0215,-18.3579 66.7734,-19.3081 C67.5254,-20.2583 68.6123,-20.9897 70.0342,-21.5024 C71.4561,-22.0151 73.1035,-22.2715 74.9766,-22.2715 C76.8359,-22.2715 78.3467,-22.0527 79.5088,-21.6152 C80.6709,-21.1777 81.5254,-20.6274 82.0723,-19.9644 C82.6191,-19.3013 83.002,-18.4639 83.2207,-17.4521 C83.3438,-16.8232 83.4053,-15.6885 83.4053,-14.0479 L83.4053,-9.12598 C83.4053,-5.69434 83.4839,-3.52393 83.6411,-2.61475 C83.7983,-1.70557 84.1094,-0.833984 84.5742,0 L80.7188,0 C80.3359,-0.765625 80.0898,-1.66113 79.9805,-2.68652 M79.6729,-10.9307 C78.333,-10.3838 76.3232,-9.91895 73.6436,-9.53613 C72.126,-9.31738 71.0527,-9.07129 70.4238,-8.79785 C69.7949,-8.52441 69.3096,-8.12451 68.9678,-7.59814 C68.626,-7.07178 68.4551,-6.4873 68.4551,-5.84473 C68.4551,-4.86035 68.8276,-4.04004 69.5728,-3.38379 C70.3179,-2.72754 71.4082,-2.39941 72.8438,-2.39941 C74.2656,-2.39941 75.5303,-2.71045 76.6377,-3.33252 C77.7451,-3.95459 78.5586,-4.80566 79.0781,-5.88574 C79.4746,-6.71973 79.6729,-7.9502 79.6729,-9.57715 L79.6729,-10.9307 M88.0918,1.80469 L91.6807,2.33789 C91.8311,3.44531 92.248,4.25195 92.9316,4.75781 C93.8477,5.44141 95.0986,5.7832 96.6846,5.7832 C98.3936,5.7832 99.7129,5.44141 100.643,4.75781 C101.572,4.07422 102.201,3.11719 102.529,1.88672 C102.721,1.13477 102.81,-0.444336 102.796,-2.85059 C101.183,-0.950195 99.1729,0 96.7666,0 C93.7725,0 91.4551,-1.08008 89.8145,-3.24023 C88.1738,-5.40039 87.3535,-7.99121 87.3535,-11.0127 C87.3535,-13.0908 87.7295,-15.0083 88.4814,-16.7651 C89.2334,-18.522 90.3237,-19.8789 91.7524,-20.8359 C93.1812,-21.793 94.8594,-22.2715 96.7871,-22.2715 C99.3574,-22.2715 101.477,-21.2324 103.145,-19.1543 L103.145,-21.7793 L106.549,-21.7793 L106.549,-2.95313 C106.549,0.4375 106.204,2.84033 105.513,4.25537 C104.823,5.67041 103.729,6.78809 102.232,7.6084 C100.735,8.42871 98.8926,8.83887 96.7051,8.83887 C94.1074,8.83887 92.0088,8.25439 90.4092,7.08545 C88.8096,5.9165 88.0371,4.15625 88.0918,1.80469 M91.1475,-11.2793 C91.1475,-8.42188 91.7148,-6.33691 92.8496,-5.02441 C93.9844,-3.71191 95.4063,-3.05566 97.1152,-3.05566 C98.8105,-3.05566 100.232,-3.7085 101.381,-5.01416 C102.529,-6.31982 103.104,-8.36719 103.104,-11.1563 C103.104,-13.8223 102.512,-15.832 101.33,-17.1855 C100.147,-18.5391 98.7217,-19.2158 97.0537,-19.2158 C95.4131,-19.2158 94.0186,-18.5493 92.8701,-17.2163 C91.7217,-15.8833 91.1475,-13.9043 91.1475,-11.2793 M115.788,0 L109.123,-21.7793 L112.938,-21.7793 L116.403,-9.20801 L117.695,-4.53223 C117.75,-4.76465 118.126,-6.26172 118.823,-9.02344 L122.289,-21.7793 L126.083,-21.7793 L129.344,-9.14648 L130.431,-4.9834 L131.682,-9.1875 L135.414,-21.7793 L139.003,-21.7793 L132.194,0 L128.359,0 L124.894,-13.043 L124.053,-16.7549 L119.644,0 L115.788,0 M155.98,-2.68652 C154.613,-1.52441 153.297,-0.704102 152.033,-0.225586 C150.768,0.25293 149.411,0.492188 147.962,0.492188 C145.569,0.492188 143.73,-0.0922852 142.445,-1.26123 C141.16,-2.43018 140.518,-3.92383 140.518,-5.74219 C140.518,-6.80859 140.76,-7.78271 141.246,-8.66455 C141.731,-9.54639 142.367,-10.2539 143.153,-10.7871 C143.939,-11.3203 144.824,-11.7236 145.809,-11.9971 C146.533,-12.1885 147.627,-12.373 149.09,-12.5508 C152.07,-12.9063 154.265,-13.3301 155.673,-13.8223 C155.687,-14.3281 155.693,-14.6494 155.693,-14.7861 C155.693,-16.29 155.345,-17.3496 154.647,-17.9648 C153.704,-18.7988 152.303,-19.2158 150.443,-19.2158 C148.707,-19.2158 147.425,-18.9116 146.598,-18.3032 C145.771,-17.6948 145.159,-16.6182 144.763,-15.0732 L141.153,-15.5654 C141.481,-17.1104 142.021,-18.3579 142.773,-19.3081 C143.525,-20.2583 144.612,-20.9897 146.034,-21.5024 C147.456,-22.0151 149.104,-22.2715 150.977,-22.2715 C152.836,-22.2715 154.347,-22.0527 155.509,-21.6152 C156.671,-21.1777 157.525,-20.6274 158.072,-19.9644 C158.619,-19.3013 159.002,-18.4639 159.221,-17.4521 C159.344,-16.8232 159.405,-15.6885 159.405,-14.0479 L159.405,-9.12598 C159.405,-5.69434 159.484,-3.52393 159.641,-2.61475 C159.798,-1.70557 160.109,-0.833984 160.574,0 L156.719,0 C156.336,-0.765625 156.09,-1.66113 155.98,-2.68652 M155.673,-10.9307 C154.333,-10.3838 152.323,-9.91895 149.644,-9.53613 C148.126,-9.31738 147.053,-9.07129 146.424,-8.79785 C145.795,-8.52441 145.31,-8.12451 144.968,-7.59814 C144.626,-7.07178 144.455,-6.4873 144.455,-5.84473 C144.455,-4.86035 144.828,-4.04004 145.573,-3.38379 C146.318,-2.72754 147.408,-2.39941 148.844,-2.39941 C150.266,-2.39941 151.53,-2.71045 152.638,-3.33252 C153.745,-3.95459 154.559,-4.80566 155.078,-5.88574 C155.475,-6.71973 155.673,-7.9502 155.673,-9.57715 L155.673,-10.9307 M164.687,0 L164.687,-30.0645 L168.378,-30.0645 L168.378,0 L164.687,0 M187.98,-2.68652 C186.613,-1.52441 185.297,-0.704102 184.033,-0.225586 C182.768,0.25293 181.411,0.492188 179.962,0.492188 C177.569,0.492188 175.73,-0.0922852 174.445,-1.26123 C173.16,-2.43018 172.518,-3.92383 172.518,-5.74219 C172.518,-6.80859 172.76,-7.78271 173.246,-8.66455 C173.731,-9.54639 174.367,-10.2539 175.153,-10.7871 C175.939,-11.3203 176.824,-11.7236 177.809,-11.9971 C178.533,-12.1885 179.627,-12.373 181.09,-12.5508 C184.07,-12.9063 186.265,-13.3301 187.673,-13.8223 C187.687,-14.3281 187.693,-14.6494 187.693,-14.7861 C187.693,-16.29 187.345,-17.3496 186.647,-17.9648 C185.704,-18.7988 184.303,-19.2158 182.443,-19.2158 C180.707,-19.2158 179.425,-18.9116 178.598,-18.3032 C177.771,-17.6948 177.159,-16.6182 176.763,-15.0732 L173.153,-15.5654 C173.481,-17.1104 174.021,-18.3579 174.773,-19.3081 C175.525,-20.2583 176.612,-20.9897 178.034,-21.5024 C179.456,-22.0151 181.104,-22.2715 182.977,-22.2715 C184.836,-22.2715 186.347,-22.0527 187.509,-21.6152 C188.671,-21.1777 189.525,-20.6274 190.072,-19.9644 C190.619,-19.3013 191.002,-18.4639 191.221,-17.4521 C191.344,-16.8232 191.405,-15.6885 191.405,-14.0479 L191.405,-9.12598 C191.405,-5.69434 191.484,-3.52393 191.641,-2.61475 C191.798,-1.70557 192.109,-0.833984 192.574,0 L188.719,0 C188.336,-0.765625 188.09,-1.66113 187.98,-2.68652 M187.673,-10.9307 C186.333,-10.3838 184.323,-9.91895 181.644,-9.53613 C180.126,-9.31738 179.053,-9.07129 178.424,-8.79785 C177.795,-8.52441 177.31,-8.12451 176.968,-7.59814 C176.626,-7.07178 176.455,-6.4873 176.455,-5.84473 C176.455,-4.86035 176.828,-4.04004 177.573,-3.38379 C178.318,-2.72754 179.408,-2.39941 180.844,-2.39941 C182.266,-2.39941 183.53,-2.71045 184.638,-3.33252 C185.745,-3.95459 186.559,-4.80566 187.078,-5.88574 C187.475,-6.71973 187.673,-7.9502 187.673,-9.57715 L187.673,-10.9307 M210.898,0 L210.898,-2.74805 C209.518,-0.587891 207.487,0.492188 204.808,0.492188 C203.071,0.492188 201.475,0.0136719 200.019,-0.943359 C198.563,-1.90039 197.435,-3.23682 196.635,-4.95264 C195.835,-6.66846 195.436,-8.64063 195.436,-10.8691 C195.436,-13.043 195.798,-15.0151 196.522,-16.7856 C197.247,-18.5562 198.334,-19.9131 199.783,-20.8564 C201.232,-21.7998 202.853,-22.2715 204.644,-22.2715 C205.956,-22.2715 207.125,-21.9946 208.15,-21.4409 C209.176,-20.8872 210.01,-20.166 210.652,-19.2773 L210.652,-30.0645 L214.323,-30.0645 L214.323,0 L210.898,0 M199.229,-10.8691 C199.229,-8.08008 199.817,-5.99512 200.993,-4.61426 C202.169,-3.2334 203.557,-2.54297 205.156,-2.54297 C206.77,-2.54297 208.14,-3.20264 209.268,-4.52197 C210.396,-5.84131 210.96,-7.85449 210.96,-10.5615 C210.96,-13.542 210.386,-15.7295 209.237,-17.124 C208.089,-18.5186 206.674,-19.2158 204.992,-19.2158 C203.352,-19.2158 201.981,-18.5459 200.88,-17.2061 C199.78,-15.8662 199.229,-13.7539 199.229,-10.8691 M233.98,-2.68652 C232.613,-1.52441 231.297,-0.704102 230.033,-0.225586 C228.768,0.25293 227.411,0.492188 225.962,0.492188 C223.569,0.492188 221.73,-0.0922852 220.445,-1.26123 C219.16,-2.43018 218.518,-3.92383 218.518,-5.74219 C218.518,-6.80859 218.76,-7.78271 219.246,-8.66455 C219.731,-9.54639 220.367,-10.2539 221.153,-10.7871 C221.939,-11.3203 222.824,-11.7236 223.809,-11.9971 C224.533,-12.1885 225.627,-12.373 227.09,-12.5508 C230.07,-12.9063 232.265,-13.3301 233.673,-13.8223 C233.687,-14.3281 233.693,-14.6494 233.693,-14.7861 C233.693,-16.29 233.345,-17.3496 232.647,-17.9648 C231.704,-18.7988 230.303,-19.2158 228.443,-19.2158 C226.707,-19.2158 225.425,-18.9116 224.598,-18.3032 C223.771,-17.6948 223.159,-16.6182 222.763,-15.0732 L219.153,-15.5654 C219.481,-17.1104 220.021,-18.3579 220.773,-19.3081 C221.525,-20.2583 222.612,-20.9897 224.034,-21.5024 C225.456,-22.0151 227.104,-22.2715 228.977,-22.2715 C230.836,-22.2715 232.347,-22.0527 233.509,-21.6152 C234.671,-21.1777 235.525,-20.6274 236.072,-19.9644 C236.619,-19.3013 237.002,-18.4639 237.221,-17.4521 C237.344,-16.8232 237.405,-15.6885 237.405,-14.0479 L237.405,-9.12598 C237.405,-5.69434 237.484,-3.52393 237.641,-2.61475 C237.798,-1.70557 238.109,-0.833984 238.574,0 L234.719,0 C234.336,-0.765625 234.09,-1.66113 233.98,-2.68652 M233.673,-10.9307 C232.333,-10.3838 230.323,-9.91895 227.644,-9.53613 C226.126,-9.31738 225.053,-9.07129 224.424,-8.79785 C223.795,-8.52441 223.31,-8.12451 222.968,-7.59814 C222.626,-7.07178 222.455,-6.4873 222.455,-5.84473 C222.455,-4.86035 222.828,-4.04004 223.573,-3.38379 C224.318,-2.72754 225.408,-2.39941 226.844,-2.39941 C228.266,-2.39941 229.53,-2.71045 230.638,-3.33252 C231.745,-3.95459 232.559,-4.80566 233.078,-5.88574 C233.475,-6.71973 233.673,-7.9502 233.673,-9.57715 L233.673,-10.9307"
         vector-effect="none"
         fill-rule="nonzero"
         id="path26" />
    </g>
    <g
       stroke-opacity="1"
       font-family="MS Shell Dlg 2"
       font-style="normal"
       fill="none"
       stroke-width="1"
       stroke-linecap="square"
       font-weight="400"
       stroke-linejoin="bevel"
       stroke="#000000"
       transform="matrix(0.319972,0,0,0.319972,699.238,823.037)"
       font-size="34.375"
       id="g28" />
    <g
       stroke-opacity="1"
       font-family="MS Shell Dlg 2"
       font-style="normal"
       fill="none"
       stroke-width="1"
       stroke-linecap="square"
       font-weight="400"
       stroke-linejoin="bevel"
       stroke="#000000"
       transform="matrix(0.999913,0,0,0.999913,71.4505,47.6337)"
       font-size="34.375"
       id="g29" />
    <g
       stroke-opacity="1"
       font-family="MS Shell Dlg 2"
       font-style="normal"
       fill="none"
       stroke-width="1"
       stroke-linecap="square"
       font-weight="400"
       stroke-linejoin="bevel"
       stroke="#000000"
       transform="matrix(0.319972,0,0,0.319972,1668.82,486.052)"
       font-size="34.375"
       id="g30" />
    <g
       fill-opacity="1"
       font-family="MS Shell Dlg 2"
       font-style="normal"
       fill="#323232"
       font-weight="400"
       stroke="none"
       transform="matrix(0.999913,0,0,0.999913,1668.82,486.052)"
       font-size="34.375"
       id="g31">
      <path
         d="M3.07617,0 L3.07617,-30.0645 L14.3555,-30.0645 C16.6523,-30.0645 18.4946,-29.7603 19.8823,-29.1519 C21.27,-28.5435 22.3569,-27.6069 23.1431,-26.3423 C23.9292,-25.0776 24.3223,-23.7549 24.3223,-22.374 C24.3223,-21.0889 23.9736,-19.8789 23.2764,-18.7441 C22.5791,-17.6094 21.5264,-16.6934 20.1182,-15.9961 C21.9365,-15.4629 23.3345,-14.5537 24.312,-13.2686 C25.2896,-11.9834 25.7783,-10.4658 25.7783,-8.71582 C25.7783,-7.30762 25.481,-5.99854 24.8862,-4.78857 C24.2915,-3.57861 23.5566,-2.64551 22.6816,-1.98926 C21.8066,-1.33301 20.7095,-0.837402 19.3901,-0.502441 C18.0708,-0.16748 16.4541,0 14.54,0 L3.07617,0 M7.05469,-17.4316 L13.5557,-17.4316 C15.3193,-17.4316 16.584,-17.5479 17.3496,-17.7803 C18.3613,-18.0811 19.1235,-18.5801 19.6362,-19.2773 C20.1489,-19.9746 20.4053,-20.8496 20.4053,-21.9023 C20.4053,-22.9004 20.166,-23.7788 19.6875,-24.5376 C19.209,-25.2964 18.5254,-25.8159 17.6367,-26.0962 C16.748,-26.3765 15.2236,-26.5166 13.0635,-26.5166 L7.05469,-26.5166 L7.05469,-17.4316 M7.05469,-3.54785 L14.54,-3.54785 C15.8252,-3.54785 16.7275,-3.5957 17.2471,-3.69141 C18.1631,-3.85547 18.9287,-4.12891 19.5439,-4.51172 C20.1592,-4.89453 20.665,-5.45166 21.0615,-6.18311 C21.458,-6.91455 21.6563,-7.75879 21.6563,-8.71582 C21.6563,-9.83691 21.3691,-10.811 20.7949,-11.6382 C20.2207,-12.4653 19.4243,-13.0464 18.4058,-13.3813 C17.3872,-13.7163 15.9209,-13.8838 14.0068,-13.8838 L7.05469,-13.8838 L7.05469,-3.54785 M34.7881,0 L28.123,-21.7793 L31.9375,-21.7793 L35.4033,-9.20801 L36.6953,-4.53223 C36.75,-4.76465 37.126,-6.26172 37.8232,-9.02344 L41.2891,-21.7793 L45.083,-21.7793 L48.3438,-9.14648 L49.4307,-4.9834 L50.6816,-9.1875 L54.4141,-21.7793 L58.0029,-21.7793 L51.1943,0 L47.3594,0 L43.8936,-13.043 L43.0527,-16.7549 L38.6436,0 L34.7881,0 M74.9805,-2.68652 C73.6133,-1.52441 72.2974,-0.704102 71.0327,-0.225586 C69.7681,0.25293 68.4111,0.492188 66.9619,0.492188 C64.5693,0.492188 62.7305,-0.0922852 61.4453,-1.26123 C60.1602,-2.43018 59.5176,-3.92383 59.5176,-5.74219 C59.5176,-6.80859 59.7603,-7.78271 60.2456,-8.66455 C60.731,-9.54639 61.3667,-10.2539 62.1528,-10.7871 C62.939,-11.3203 63.8242,-11.7236 64.8086,-11.9971 C65.5332,-12.1885 66.627,-12.373 68.0898,-12.5508 C71.0703,-12.9063 73.2646,-13.3301 74.6729,-13.8223 C74.6865,-14.3281 74.6934,-14.6494 74.6934,-14.7861 C74.6934,-16.29 74.3447,-17.3496 73.6475,-17.9648 C72.7041,-18.7988 71.3027,-19.2158 69.4434,-19.2158 C67.707,-19.2158 66.4253,-18.9116 65.5981,-18.3032 C64.771,-17.6948 64.1592,-16.6182 63.7627,-15.0732 L60.1533,-15.5654 C60.4814,-17.1104 61.0215,-18.3579 61.7734,-19.3081 C62.5254,-20.2583 63.6123,-20.9897 65.0342,-21.5024 C66.4561,-22.0151 68.1035,-22.2715 69.9766,-22.2715 C71.8359,-22.2715 73.3467,-22.0527 74.5088,-21.6152 C75.6709,-21.1777 76.5254,-20.6274 77.0723,-19.9644 C77.6191,-19.3013 78.002,-18.4639 78.2207,-17.4521 C78.3438,-16.8232 78.4053,-15.6885 78.4053,-14.0479 L78.4053,-9.12598 C78.4053,-5.69434 78.4839,-3.52393 78.6411,-2.61475 C78.7983,-1.70557 79.1094,-0.833984 79.5742,0 L75.7188,0 C75.3359,-0.765625 75.0898,-1.66113 74.9805,-2.68652 M74.6729,-10.9307 C73.333,-10.3838 71.3232,-9.91895 68.6436,-9.53613 C67.126,-9.31738 66.0527,-9.07129 65.4238,-8.79785 C64.7949,-8.52441 64.3096,-8.12451 63.9678,-7.59814 C63.626,-7.07178 63.4551,-6.4873 63.4551,-5.84473 C63.4551,-4.86035 63.8276,-4.04004 64.5728,-3.38379 C65.3179,-2.72754 66.4082,-2.39941 67.8438,-2.39941 C69.2656,-2.39941 70.5303,-2.71045 71.6377,-3.33252 C72.7451,-3.95459 73.5586,-4.80566 74.0781,-5.88574 C74.4746,-6.71973 74.6729,-7.9502 74.6729,-9.57715 L74.6729,-10.9307 M83.7275,0 L83.7275,-21.7793 L87.0498,-21.7793 L87.0498,-18.4775 C87.8975,-20.0225 88.6802,-21.041 89.3979,-21.5332 C90.1157,-22.0254 90.9053,-22.2715 91.7666,-22.2715 C93.0107,-22.2715 94.2754,-21.875 95.5605,-21.082 L94.2891,-17.6572 C93.3867,-18.1904 92.4844,-18.457 91.582,-18.457 C90.7754,-18.457 90.0508,-18.2144 89.4082,-17.729 C88.7656,-17.2437 88.3076,-16.5703 88.0342,-15.709 C87.624,-14.3965 87.4189,-12.9609 87.4189,-11.4023 L87.4189,0 L83.7275,0 M97.7891,-25.8193 L97.7891,-30.0645 L101.48,-30.0645 L101.48,-25.8193 L97.7891,-25.8193 M97.7891,0 L97.7891,-21.7793 L101.48,-21.7793 L101.48,0 L97.7891,0"
         vector-effect="none"
         fill-rule="nonzero"
         id="path30" />
    </g>
    <g
       stroke-opacity="1"
       font-family="MS Shell Dlg 2"
       font-style="normal"
       fill="none"
       stroke-width="1"
       stroke-linecap="square"
       font-weight="400"
       stroke-linejoin="bevel"
       stroke="#000000"
       transform="matrix(0.319972,0,0,0.319972,1668.82,486.052)"
       font-size="34.375"
       id="g32" />
    <g
       stroke-opacity="1"
       font-family="MS Shell Dlg 2"
       font-style="normal"
       fill="none"
       stroke-width="1"
       stroke-linecap="square"
       font-weight="400"
       stroke-linejoin="bevel"
       stroke="#000000"
       transform="matrix(0.999913,0,0,0.999913,71.4505,47.6337)"
       font-size="34.375"
       id="g33" />
    <g
       stroke-opacity="1"
       font-family="MS Shell Dlg 2"
       font-style="normal"
       fill="none"
       stroke-width="1"
       stroke-linecap="square"
       font-weight="400"
       stroke-linejoin="bevel"
       stroke="#000000"
       transform="matrix(0.319972,0,0,0.319972,668.252,1463.66)"
       font-size="34.375"
       id="g34" />
    <g
       fill-opacity="1"
       font-family="MS Shell Dlg 2"
       font-style="normal"
       fill="#323232"
       font-weight="400"
       stroke="none"
       transform="matrix(0.999913,0,0,0.999913,668.252,1463.66)"
       font-size="34.375"
       id="g35">
      <path
         d="M3.07617,0 L3.07617,-30.0645 L7.05469,-30.0645 L7.05469,-15.1553 L21.9844,-30.0645 L27.3779,-30.0645 L14.7656,-17.8828 L27.9316,0 L22.6816,0 L11.9766,-15.2168 L7.05469,-10.418 L7.05469,0 L3.07617,0 M34.7881,0 L28.123,-21.7793 L31.9375,-21.7793 L35.4033,-9.20801 L36.6953,-4.53223 C36.75,-4.76465 37.126,-6.26172 37.8232,-9.02344 L41.2891,-21.7793 L45.083,-21.7793 L48.3438,-9.14648 L49.4307,-4.9834 L50.6816,-9.1875 L54.4141,-21.7793 L58.0029,-21.7793 L51.1943,0 L47.3594,0 L43.8936,-13.043 L43.0527,-16.7549 L38.6436,0 L34.7881,0 M74.9805,-2.68652 C73.6133,-1.52441 72.2974,-0.704102 71.0327,-0.225586 C69.7681,0.25293 68.4111,0.492188 66.9619,0.492188 C64.5693,0.492188 62.7305,-0.0922852 61.4453,-1.26123 C60.1602,-2.43018 59.5176,-3.92383 59.5176,-5.74219 C59.5176,-6.80859 59.7603,-7.78271 60.2456,-8.66455 C60.731,-9.54639 61.3667,-10.2539 62.1528,-10.7871 C62.939,-11.3203 63.8242,-11.7236 64.8086,-11.9971 C65.5332,-12.1885 66.627,-12.373 68.0898,-12.5508 C71.0703,-12.9063 73.2646,-13.3301 74.6729,-13.8223 C74.6865,-14.3281 74.6934,-14.6494 74.6934,-14.7861 C74.6934,-16.29 74.3447,-17.3496 73.6475,-17.9648 C72.7041,-18.7988 71.3027,-19.2158 69.4434,-19.2158 C67.707,-19.2158 66.4253,-18.9116 65.5981,-18.3032 C64.771,-17.6948 64.1592,-16.6182 63.7627,-15.0732 L60.1533,-15.5654 C60.4814,-17.1104 61.0215,-18.3579 61.7734,-19.3081 C62.5254,-20.2583 63.6123,-20.9897 65.0342,-21.5024 C66.4561,-22.0151 68.1035,-22.2715 69.9766,-22.2715 C71.8359,-22.2715 73.3467,-22.0527 74.5088,-21.6152 C75.6709,-21.1777 76.5254,-20.6274 77.0723,-19.9644 C77.6191,-19.3013 78.002,-18.4639 78.2207,-17.4521 C78.3438,-16.8232 78.4053,-15.6885 78.4053,-14.0479 L78.4053,-9.12598 C78.4053,-5.69434 78.4839,-3.52393 78.6411,-2.61475 C78.7983,-1.70557 79.1094,-0.833984 79.5742,0 L75.7188,0 C75.3359,-0.765625 75.0898,-1.66113 74.9805,-2.68652 M74.6729,-10.9307 C73.333,-10.3838 71.3232,-9.91895 68.6436,-9.53613 C67.126,-9.31738 66.0527,-9.07129 65.4238,-8.79785 C64.7949,-8.52441 64.3096,-8.12451 63.9678,-7.59814 C63.626,-7.07178 63.4551,-6.4873 63.4551,-5.84473 C63.4551,-4.86035 63.8276,-4.04004 64.5728,-3.38379 C65.3179,-2.72754 66.4082,-2.39941 67.8438,-2.39941 C69.2656,-2.39941 70.5303,-2.71045 71.6377,-3.33252 C72.7451,-3.95459 73.5586,-4.80566 74.0781,-5.88574 C74.4746,-6.71973 74.6729,-7.9502 74.6729,-9.57715 L74.6729,-10.9307 M83.6865,0 L83.6865,-30.0645 L87.3779,-30.0645 L87.3779,0 L83.6865,0 M92.7891,-25.8193 L92.7891,-30.0645 L96.4805,-30.0645 L96.4805,-25.8193 L92.7891,-25.8193 M92.7891,0 L92.7891,-21.7793 L96.4805,-21.7793 L96.4805,0 L92.7891,0"
         vector-effect="none"
         fill-rule="nonzero"
         id="path34" />
    </g>
    <g
       stroke-opacity="1"
       font-family="MS Shell Dlg 2"
       font-style="normal"
       fill="none"
       stroke-width="1"
       stroke-linecap="square"
       font-weight="400"
       stroke-linejoin="bevel"
       stroke="#000000"
       transform="matrix(0.319972,0,0,0.319972,668.252,1463.66)"
       font-size="34.375"
       id="g36" />
    <g
       stroke-opacity="1"
       font-family="MS Shell Dlg 2"
       font-style="normal"
       fill="none"
       stroke-width="1"
       stroke-linecap="square"
       font-weight="400"
       stroke-linejoin="bevel"
       stroke="#000000"
       transform="matrix(0.999913,0,0,0.999913,71.4505,47.6337)"
       font-size="34.375"
       id="g37" />
    <g
       stroke-opacity="1"
       font-family="MS Shell Dlg 2"
       font-style="normal"
       fill="none"
       stroke-width="1"
       stroke-linecap="square"
       font-weight="400"
       stroke-linejoin="bevel"
       stroke="#000000"
       transform="matrix(0.319972,0,0,0.319972,426.906,1176.94)"
       font-size="34.375"
       id="g38" />
    <g
       fill-opacity="1"
       font-family="'MS Shell Dlg 2'"
       font-style="normal"
       fill="#323232"
       font-weight="400"
       stroke="none"
       transform="matrix(0.999913,0,0,0.999913,386.56818,1082.8184)"
       font-size="34.375px"
       id="g39">
      <path
         d="M -0.0615234,0 11.4844,-30.0645 h 4.2861 L 28.0752,0 H 23.543 L 20.0361,-9.10547 H 7.46484 L 4.16309,0 H -0.0615234 M 8.61328,-12.3457 H 18.8057 l -3.1377,-8.3262 c -0.9571,-2.5293 -1.668,-4.6074 -2.1328,-6.2344 -0.3829,1.9278 -0.9229,3.8418 -1.6202,5.7422 l -3.30172,8.8184 M 34.1729,0 H 30.748 v -30.0645 h 3.6915 v 10.7256 c 1.5585,-1.955 3.5478,-2.9326 5.9677,-2.9326 1.3399,0 2.6079,0.27 3.8042,0.8101 1.1963,0.54 2.1807,1.2988 2.9532,2.2763 0.7724,0.9776 1.3774,2.1568 1.8149,3.5376 0.4375,1.3809 0.6562,2.8575 0.6562,4.4297 0,3.73245 -0.9228,6.61721 -2.7685,8.65432 -1.8457,2.037113 -4.0606,3.055668 -6.6445,3.055668 -2.5704,0 -4.587,-1.073243 -6.0498,-3.219728 V 0 m -0.0411,-11.0537 c 0,2.61132 0.3555,4.49804 1.0664,5.66015 1.1622,1.90039 2.7344,2.85058 4.7168,2.85058 1.6133,0 3.0079,-0.70068 4.1836,-2.10205 1.1758,-1.40137 1.7637,-3.48975 1.7637,-6.26518 0,-2.8437 -0.564,-4.9423 -1.6919,-6.2959 -1.1279,-1.3535 -2.4917,-2.0302 -4.0913,-2.0302 -1.6133,0 -3.0078,0.7007 -4.1836,2.102 -1.1758,1.4014 -1.7637,3.4282 -1.7637,6.0806 m 33.8487,8.36718 c -1.3672,1.16211 -2.6831,1.982418 -3.9478,2.460934 -1.2646,0.478516 -2.6216,0.717774 -4.0708,0.717774 -2.3926,0 -4.2314,-0.5844732 -5.5166,-1.753418 -1.2851,-1.16895 -1.9277,-2.6626 -1.9277,-4.48096 0,-1.0664 0.2427,-2.04052 0.728,-2.92236 0.4854,-0.88184 1.1211,-1.58935 1.9072,-2.12255 0.7862,-0.5332 1.6714,-0.9365 2.6558,-1.21 0.7246,-0.1914 1.8184,-0.3759 3.2812,-0.5537 2.9805,-0.3555 5.1748,-0.7793 6.5831,-1.2715 0.0136,-0.5058 0.0205,-0.8271 0.0205,-0.9638 0,-1.5039 -0.3487,-2.5635 -1.0459,-3.1787 -0.9434,-0.834 -2.3448,-1.251 -4.2041,-1.251 -1.7364,0 -3.0181,0.3042 -3.8453,0.9126 -0.8271,0.6084 -1.4389,1.685 -1.8354,3.23 l -3.6094,-0.4922 c 0.3281,-1.545 0.8682,-2.7925 1.6201,-3.7427 0.752,-0.9502 1.8389,-1.6816 3.2608,-2.1943 1.4219,-0.5127 3.0693,-0.7691 4.9424,-0.7691 1.8593,0 3.3701,0.2188 4.5322,0.6563 1.1621,0.4375 2.0166,0.9878 2.5635,1.6508 0.5468,0.6631 0.9297,1.5005 1.1484,2.5123 0.1231,0.6289 0.1846,1.7636 0.1846,3.4042 v 4.92192 c 0,3.43164 0.0786,5.60205 0.2358,6.51123 0.1572,0.90918 0.4683,1.780766 0.9331,2.61475 h -3.8554 c -0.3829,-0.765625 -0.629,-1.66113 -0.7383,-2.68652 m -0.3076,-8.24418 c -1.3399,0.5469 -3.3497,1.01175 -6.0293,1.39457 -1.5176,0.21875 -2.5909,0.46484 -3.2198,0.73828 -0.6289,0.27344 -1.1142,0.67334 -1.456,1.19971 -0.3418,0.52636 -0.5127,1.11084 -0.5127,1.75341 0,0.98438 0.3725,1.80469 1.1177,2.46094 0.7451,0.65625 1.8354,0.98438 3.271,0.98438 1.4218,0 2.6865,-0.31104 3.7939,-0.93311 1.1074,-0.62207 1.9209,-1.47314 2.4404,-2.55322 0.3965,-0.83399 0.5948,-2.06446 0.5948,-3.69141 v -1.35355 m 9.0751,-14.8476 v -4.2862 h 3.6915 v 4.2862 H 76.748 m -4.6757,34.22752 0.6972,-3.1377 c 0.7383,0.19141 1.3194,0.28711 1.7432,0.28711 0.7519,0 1.3125,-0.24951 1.6816,-0.74853 C 76.5635,4.35107 76.748,3.10352 76.748,1.10742 V -21.7793 h 3.6915 V 1.18945 c 0,2.67969 -0.3487,4.5459 -1.0459,5.59864 -0.8887,1.36718 -2.3653,2.05078 -4.4297,2.05078 -0.9981,0 -1.9619,-0.12989 -2.8916,-0.38965 M 85.7891,-25.8193 v -4.2452 h 3.6914 v 4.2452 h -3.6914 m 0,25.8193 v -21.7793 h 3.6914 V 0 h -3.6914"
         vector-effect="none"
         fill-rule="nonzero"
         id="path38" />
    </g>
    <g
       stroke-opacity="1"
       font-family="MS Shell Dlg 2"
       font-style="normal"
       fill="none"
       stroke-width="1"
       stroke-linecap="square"
       font-weight="400"
       stroke-linejoin="bevel"
       stroke="#000000"
       transform="matrix(0.319972,0,0,0.319972,426.906,1176.94)"
       font-size="34.375"
       id="g40" />
    <g
       stroke-opacity="1"
       font-family="MS Shell Dlg 2"
       font-style="normal"
       fill="none"
       stroke-width="1"
       stroke-linecap="square"
       font-weight="400"
       stroke-linejoin="bevel"
       stroke="#000000"
       transform="matrix(0.999913,0,0,0.999913,71.4505,47.6337)"
       font-size="34.375"
       id="g41" />
    <g
       stroke-opacity="1"
       font-family="MS Shell Dlg 2"
       font-style="normal"
       fill="none"
       stroke-width="1"
       stroke-linecap="square"
       font-weight="400"
       stroke-linejoin="bevel"
       stroke="#000000"
       transform="matrix(0.319972,0,0,0.319972,1201.14,1616.29)"
       font-size="34.375"
       id="g42" />
    <g
       fill-opacity="1"
       font-family="MS Shell Dlg 2"
       font-style="normal"
       fill="#323232"
       font-weight="400"
       stroke="none"
       transform="matrix(0.999913,0,0,0.999913,1201.14,1616.29)"
       font-size="34.375"
       id="g43">
      <path
         d="M3.07617,0 L3.07617,-30.0645 L7.05469,-30.0645 L7.05469,-15.1553 L21.9844,-30.0645 L27.3779,-30.0645 L14.7656,-17.8828 L27.9316,0 L22.6816,0 L11.9766,-15.2168 L7.05469,-10.418 L7.05469,0 L3.07617,0 M45.042,0 L45.042,-3.19922 C43.3467,-0.738281 41.043,0.492188 38.1309,0.492188 C36.8457,0.492188 35.646,0.246094 34.5317,-0.246094 C33.4175,-0.738281 32.5903,-1.35693 32.0503,-2.10205 C31.5103,-2.84717 31.1309,-3.75977 30.9121,-4.83984 C30.7617,-5.56445 30.6865,-6.71289 30.6865,-8.28516 L30.6865,-21.7793 L34.3779,-21.7793 L34.3779,-9.7002 C34.3779,-7.77246 34.4531,-6.47363 34.6035,-5.80371 C34.8359,-4.83301 35.3281,-4.0708 36.0801,-3.51709 C36.832,-2.96338 37.7617,-2.68652 38.8691,-2.68652 C39.9766,-2.68652 41.0156,-2.97021 41.9863,-3.5376 C42.957,-4.10498 43.644,-4.87744 44.0474,-5.85498 C44.4507,-6.83252 44.6523,-8.25098 44.6523,-10.1104 L44.6523,-21.7793 L48.3438,-21.7793 L48.3438,0 L45.042,0 M53.748,-25.7783 L53.748,-30.0645 L57.4395,-30.0645 L57.4395,-25.7783 L53.748,-25.7783 M49.0723,8.44922 L49.7695,5.31152 C50.5078,5.50293 51.0889,5.59863 51.5127,5.59863 C52.2646,5.59863 52.8252,5.34912 53.1943,4.8501 C53.5635,4.35107 53.748,3.10352 53.748,1.10742 L53.748,-21.7793 L57.4395,-21.7793 L57.4395,1.18945 C57.4395,3.86914 57.0908,5.73535 56.3936,6.78809 C55.5049,8.15527 54.0283,8.83887 51.9639,8.83887 C50.9658,8.83887 50.002,8.70898 49.0723,8.44922 M77.6777,-7.01367 L81.4922,-6.54199 C80.8906,-4.31348 79.7764,-2.58398 78.1494,-1.35352 C76.5225,-0.123047 74.4443,0.492188 71.915,0.492188 C68.7295,0.492188 66.2036,-0.48877 64.3374,-2.45068 C62.4712,-4.4126 61.5381,-7.16406 61.5381,-10.7051 C61.5381,-14.3691 62.4814,-17.2129 64.3682,-19.2363 C66.2549,-21.2598 68.7021,-22.2715 71.71,-22.2715 C74.6221,-22.2715 77.001,-21.2803 78.8467,-19.2979 C80.6924,-17.3154 81.6152,-14.5264 81.6152,-10.9307 C81.6152,-10.7119 81.6084,-10.3838 81.5947,-9.94629 L65.3525,-9.94629 C65.4893,-7.55371 66.166,-5.72168 67.3828,-4.4502 C68.5996,-3.17871 70.1172,-2.54297 71.9355,-2.54297 C73.2891,-2.54297 74.4443,-2.89844 75.4014,-3.60938 C76.3584,-4.32031 77.1172,-5.45508 77.6777,-7.01367 M65.5576,-12.9814 L77.7188,-12.9814 C77.5547,-14.8135 77.0898,-16.1875 76.3242,-17.1035 C75.1484,-18.5254 73.624,-19.2363 71.751,-19.2363 C70.0557,-19.2363 68.6304,-18.6689 67.4751,-17.5342 C66.3198,-16.3994 65.6807,-14.8818 65.5576,-12.9814 "
         vector-effect="none"
         fill-rule="nonzero"
         id="path42" />
    </g>
    <g
       stroke-opacity="1"
       font-family="MS Shell Dlg 2"
       font-style="normal"
       fill="none"
       stroke-width="1"
       stroke-linecap="square"
       font-weight="400"
       stroke-linejoin="bevel"
       stroke="#000000"
       transform="matrix(0.319972,0,0,0.319972,1201.14,1616.29)"
       font-size="34.375"
       id="g44" />
    <g
       stroke-opacity="1"
       font-family="MS Shell Dlg 2"
       font-style="normal"
       fill="none"
       stroke-width="1"
       stroke-linecap="square"
       font-weight="400"
       stroke-linejoin="bevel"
       stroke="#000000"
       transform="matrix(0.999913,0,0,0.999913,71.4505,47.6337)"
       font-size="34.375"
       id="g45" />
    <g
       stroke-opacity="1"
       font-family="MS Shell Dlg 2"
       font-style="normal"
       fill="none"
       stroke-width="1"
       stroke-linecap="square"
       font-weight="400"
       stroke-linejoin="bevel"
       stroke="#000000"
       transform="matrix(11.81,0,0,11.81,71.4505,47.6337)"
       font-size="34.375"
       id="g46" />
    <g
       stroke-opacity="1"
       font-family="MS Shell Dlg 2"
       font-style="normal"
       fill="none"
       stroke-width="1"
       stroke-linecap="square"
       font-weight="400"
       stroke-linejoin="bevel"
       stroke="#000000"
       transform="matrix(11.81,0,0,11.81,71.4505,47.6337)"
       font-size="34.375"
       id="g47" />
    <g
       stroke-opacity="1"
       font-family="MS Shell Dlg 2"
       font-style="normal"
       fill="none"
       stroke-width="1"
       stroke-linecap="square"
       font-weight="400"
       stroke-linejoin="bevel"
       stroke="#000000"
       transform="matrix(11.81,0,0,11.81,71.4505,47.6337)"
       font-size="34.375"
       id="g48" />
    <g
       stroke-opacity="1"
       font-family="MS Shell Dlg 2"
       font-style="normal"
       fill="none"
       stroke-width="1"
       stroke-linecap="square"
       font-weight="400"
       stroke-linejoin="bevel"
       stroke="#000000"
       transform="matrix(1,0,0,1,0,0)"
       font-size="34.375"
       id="g49" />
    <g
       stroke-opacity="1"
       font-family="MS Shell Dlg 2"
       font-style="normal"
       fill="none"
       stroke-width="1"
       stroke-linecap="square"
       font-weight="400"
       stroke-linejoin="bevel"
       stroke="#000000"
       transform="matrix(11.81,0,0,11.81,71.4505,47.6337)"
       font-size="34.375"
       id="g50" />
    <g
       stroke-opacity="1"
       font-family="MS Shell Dlg 2"
       font-style="normal"
       fill="none"
       stroke-width="1"
       stroke-linecap="square"
       font-weight="400"
       stroke-linejoin="bevel"
       stroke="#000000"
       transform="matrix(11.81,0,0,11.81,71.4505,47.6337)"
       font-size="34.375"
       id="g51" />
    <g
       stroke-opacity="1"
       font-family="MS Shell Dlg 2"
       font-style="normal"
       fill="none"
       stroke-width="1"
       stroke-linecap="square"
       font-weight="400"
       stroke-linejoin="bevel"
       stroke="#000000"
       transform="matrix(1,0,0,1,0,0)"
       font-size="34.375"
       id="g52" />
  </g>
  <metadata
     id="metadata53">
    <rdf:RDF>
      <rdf:Description
         dc:format="image/svg+xml"
         dc:identifier=""
         dc:title=""
         dc:date="2024-05-07T09:57:21"
         dc:description="">
        <dc:creator>
          <rdf:Bag>
            <rdf:li>USER</rdf:li>
          </rdf:Bag>
        </dc:creator>
        <dc:publisher>
          <rdf:Bag>
            <rdf:li>QGIS 3.32.3-Lima</rdf:li>
          </rdf:Bag>
        </dc:publisher>
        <dc:subject>
          <rdf:Bag />
        </dc:subject>
      </rdf:Description>
      <cc:Work
         rdf:about="">
        <dc:format>image/svg+xml</dc:format>
        <dc:date>2024-05-07T09:57:21</dc:date>
        <dc:identifier />
        <dc:description />
        <dc:creator>
          <cc:Agent>
            <dc:title>USER</dc:title>
          </cc:Agent>
        </dc:creator>
        <dc:publisher>
          <cc:Agent>
            <dc:title>QGIS 3.32.3-Lima</dc:title>
          </cc:Agent>
        </dc:publisher>
      </cc:Work>
    </rdf:RDF>
  </metadata>
</svg>
